<svg width="894" height="894" viewBox="0 0 894 894" fill="none" xmlns="http://www.w3.org/2000/svg">
<g opacity="0.47">
<g opacity="0.07">
<path fill-rule="evenodd" clip-rule="evenodd" d="M752.585 182.759H141.32C90.1835 182.759 48.7296 224.213 48.7296 275.349V618.56C48.7296 669.696 90.1836 711.15 141.32 711.15H752.586C803.722 711.15 845.176 669.696 845.176 618.56V275.349C845.176 224.213 803.721 182.759 752.585 182.759ZM141.32 178.901C88.0529 178.901 44.8716 222.082 44.8716 275.349V618.56C44.8716 671.826 88.053 715.008 141.32 715.008H752.586C805.852 715.008 849.034 671.826 849.034 618.56V275.349C849.034 222.082 805.852 178.901 752.585 178.901H141.32Z" fill="url(#paint0_linear_747_107)"/>
<path fill-rule="evenodd" clip-rule="evenodd" d="M579.541 65.3342L50.1697 370.967C5.88456 396.535 -9.28864 453.162 16.2794 497.447L187.885 794.677C213.453 838.962 270.08 854.135 314.365 828.567L843.737 522.934C888.022 497.366 903.195 440.739 877.627 396.454L706.022 99.2244C680.454 54.9393 623.827 39.7661 579.541 65.3342ZM48.2407 367.626C2.11039 394.259 -13.695 453.246 12.9383 499.376L184.544 796.606C211.177 842.736 270.164 858.541 316.294 831.908L845.666 526.275C891.796 499.642 907.602 440.655 880.968 394.525L709.363 97.2955C682.729 51.1651 623.743 35.3597 577.612 61.9931L48.2407 367.626Z" fill="url(#paint1_linear_747_107)"/>
<path fill-rule="evenodd" clip-rule="evenodd" d="M370.969 50.1714L65.336 579.543C39.7679 623.828 54.9411 680.455 99.2263 706.023L396.456 877.629C440.741 903.197 497.368 888.024 522.936 843.738L828.569 314.367C854.137 270.082 838.964 213.454 794.679 187.886L497.449 16.281C453.164 -9.28707 396.537 5.88622 370.969 50.1714ZM61.9949 577.614C35.3616 623.744 51.167 682.731 97.2973 709.364L394.527 880.97C440.657 907.603 499.644 891.798 526.277 845.667L831.91 316.296C858.543 270.165 842.738 211.179 796.608 184.545L499.378 12.9399C453.248 -13.6935 394.261 2.11203 367.628 48.2424L61.9949 577.614Z" fill="url(#paint2_linear_747_107)"/>
<path fill-rule="evenodd" clip-rule="evenodd" d="M182.756 141.319V752.585C182.756 803.721 224.21 845.175 275.346 845.175H618.557C669.693 845.175 711.147 803.721 711.147 752.585V141.319C711.147 90.1832 669.693 48.7292 618.557 48.7292H275.346C224.21 48.7292 182.756 90.1833 182.756 141.319ZM178.898 752.585C178.898 805.852 222.08 849.033 275.346 849.033H618.557C671.824 849.033 715.005 805.852 715.005 752.585V141.319C715.005 88.0525 671.824 44.8713 618.557 44.8713H275.346C222.08 44.8713 178.898 88.0526 178.898 141.319V752.585Z" fill="url(#paint3_linear_747_107)"/>
<path fill-rule="evenodd" clip-rule="evenodd" d="M65.3357 314.363L370.969 843.735C396.537 888.02 453.164 903.193 497.449 877.625L794.678 706.02C838.963 680.452 854.137 623.825 828.568 579.54L522.936 50.1678C497.368 5.88267 440.74 -9.29052 396.455 16.2775L99.2259 187.883C54.9408 213.451 39.7676 270.078 65.3357 314.363ZM367.628 845.664C394.261 891.794 453.247 907.6 499.378 880.966L796.607 709.361C842.737 682.728 858.543 623.741 831.91 577.611L526.277 48.2389C499.643 2.10853 440.657 -13.6969 394.526 12.9365L97.297 184.542C51.1666 211.175 35.3612 270.162 61.9946 316.292L367.628 845.664Z" fill="url(#paint4_linear_747_107)"/>
<path fill-rule="evenodd" clip-rule="evenodd" d="M50.1691 522.936L579.541 828.569C623.826 854.137 680.453 838.964 706.021 794.679L877.627 497.449C903.195 453.164 888.021 396.537 843.736 370.969L314.364 65.3359C270.079 39.7678 213.452 54.941 187.884 99.2262L16.2787 396.456C-9.28931 440.741 5.88398 497.368 50.1691 522.936ZM577.612 831.91C623.742 858.543 682.729 842.738 709.362 796.607L880.968 499.378C907.601 453.248 891.796 394.261 845.665 367.628L316.293 61.9948C270.163 35.3615 211.176 51.1669 184.543 97.2972L12.9377 394.527C-13.6957 440.657 2.10978 499.644 48.2402 526.277L577.612 831.91Z" fill="url(#paint5_linear_747_107)"/>
</g>
</g>
<defs>
<linearGradient id="paint0_linear_747_107" x1="446.953" y1="-0.0012207" x2="446.953" y2="893.908" gradientUnits="userSpaceOnUse">
<stop stop-color="#33F498"/>
<stop offset="1" stop-color="#23DAE6"/>
</linearGradient>
<linearGradient id="paint1_linear_747_107" x1="446.953" y1="-0.0012207" x2="446.953" y2="893.908" gradientUnits="userSpaceOnUse">
<stop stop-color="#33F498"/>
<stop offset="1" stop-color="#23DAE6"/>
</linearGradient>
<linearGradient id="paint2_linear_747_107" x1="446.953" y1="-0.0012207" x2="446.953" y2="893.908" gradientUnits="userSpaceOnUse">
<stop stop-color="#33F498"/>
<stop offset="1" stop-color="#23DAE6"/>
</linearGradient>
<linearGradient id="paint3_linear_747_107" x1="446.953" y1="-0.0012207" x2="446.953" y2="893.908" gradientUnits="userSpaceOnUse">
<stop stop-color="#33F498"/>
<stop offset="1" stop-color="#23DAE6"/>
</linearGradient>
<linearGradient id="paint4_linear_747_107" x1="446.953" y1="-0.0012207" x2="446.953" y2="893.908" gradientUnits="userSpaceOnUse">
<stop stop-color="#33F498"/>
<stop offset="1" stop-color="#23DAE6"/>
</linearGradient>
<linearGradient id="paint5_linear_747_107" x1="312.925" y1="679.093" x2="580.979" y2="214.811" gradientUnits="userSpaceOnUse">
<stop stop-color="#33F498"/>
<stop offset="1" stop-color="#23DAE6"/>
</linearGradient>
</defs>
</svg>
