<svg width="14" height="9" viewBox="0 0 14 9" fill="none" xmlns="http://www.w3.org/2000/svg">
<path d="M7.00002 8.47077C6.84446 8.47077 6.69863 8.44646 6.56252 8.39785C6.42641 8.34924 6.30002 8.2666 6.18335 8.14993L0.816683 2.78327C0.602794 2.56938 0.49585 2.29716 0.49585 1.9666C0.49585 1.63605 0.602794 1.36382 0.816683 1.14993C1.03057 0.936046 1.30279 0.829102 1.63335 0.829102C1.96391 0.829102 2.23613 0.936046 2.45002 1.14993L7.00002 5.69993L11.55 1.14993C11.7639 0.936046 12.0361 0.829102 12.3667 0.829102C12.6972 0.829102 12.9695 0.936046 13.1834 1.14993C13.3972 1.36382 13.5042 1.63605 13.5042 1.9666C13.5042 2.29716 13.3972 2.56938 13.1834 2.78327L7.81668 8.14993C7.70002 8.2666 7.57363 8.34924 7.43752 8.39785C7.30141 8.44646 7.15557 8.47077 7.00002 8.47077Z" fill="#fff"/>
</svg>
