<svg width="18" height="18" viewBox="0 0 18 18" fill="none" xmlns="http://www.w3.org/2000/svg">
<g clipPath="url(#clip0_243_6341)">
<path fillRule="evenodd" clipRule="evenodd" d="M9 0C4.02944 0 0 4.02944 0 9C0 13.9706 4.02944 18 9 18C13.9706 18 18 13.9706 18 9C18 4.02944 13.9706 0 9 0ZM5.3251 13.7246L9.0001 10.0496L12.6751 13.7246C12.8126 13.8621 12.9876 13.9309 13.2001 13.9309C13.4126 13.9309 13.5876 13.8621 13.7251 13.7246C13.8626 13.5871 13.9313 13.4121 13.9313 13.1996C13.9313 12.9871 13.8626 12.8121 13.7251 12.6746L10.0501 8.99961L13.7251 5.32461C13.8626 5.18711 13.9313 5.01211 13.9313 4.79961C13.9313 4.58711 13.8626 4.41211 13.7251 4.27461C13.5876 4.13711 13.4126 4.06836 13.2001 4.06836C12.9876 4.06836 12.8126 4.13711 12.6751 4.27461L9.0001 7.94961L5.3251 4.27461C5.1876 4.13711 5.0126 4.06836 4.8001 4.06836C4.5876 4.06836 4.4126 4.13711 4.2751 4.27461C4.1376 4.41211 4.06885 4.58711 4.06885 4.79961C4.06885 5.01211 4.1376 5.18711 4.2751 5.32461L7.9501 8.99961L4.2751 12.6746C4.1376 12.8121 4.06885 12.9871 4.06885 13.1996C4.06885 13.4121 4.1376 13.5871 4.2751 13.7246C4.4126 13.8621 4.5876 13.9309 4.8001 13.9309C5.0126 13.9309 5.1876 13.8621 5.3251 13.7246Z" fill="white" fillOpacity="0.22"/>
</g>
<defs>
<clipPath id="clip0_243_6341">
<rect width="18" height="18" fill="white"/>
</clipPath>
</defs>
</svg>
