<svg width="40" height="40" viewBox="0 0 40 40" fill="none" xmlns="http://www.w3.org/2000/svg">
  <circle cx="20" cy="20" r="19" fill="#444444" stroke="#666666" stroke-width="2"/>
  <path d="M20 10C14.486 10 10 14.486 10 20C10 25.514 14.486 30 20 30C25.514 30 30 25.514 30 20C30 14.486 25.514 10 20 10ZM20 13C21.387 13 22.5 14.113 22.5 15.5C22.5 16.887 21.387 18 20 18C18.613 18 17.5 16.887 17.5 15.5C17.5 14.113 18.613 13 20 13ZM24 27H16C15.45 27 15 26.55 15 26C15 23.517 17.015 21.5 19.5 21.5H20.5C22.985 21.5 25 23.517 25 26C25 26.55 24.55 27 24 27Z" fill="#AAAAAA"/>
</svg> 