<svg width="20" height="20" viewBox="0 0 20 20" fill="none" xmlns="http://www.w3.org/2000/svg">
<path d="M3.3335 14.8337V7.33366C3.3335 7.06977 3.39252 6.81977 3.51058 6.58366C3.62863 6.34755 3.79183 6.1531 4.00016 6.00033L9.00016 2.25033C9.29183 2.0281 9.62516 1.91699 10.0002 1.91699C10.3752 1.91699 10.7085 2.0281 11.0002 2.25033L16.0002 6.00033C16.2085 6.1531 16.3717 6.34755 16.4897 6.58366C16.6078 6.81977 16.6668 7.06977 16.6668 7.33366V14.8337C16.6668 15.292 16.5036 15.6844 16.1772 16.0107C15.8509 16.3371 15.4585 16.5003 15.0002 16.5003H12.5002C12.2641 16.5003 12.0661 16.4205 11.9064 16.2607C11.7467 16.101 11.6668 15.9031 11.6668 15.667V11.5003C11.6668 11.2642 11.587 11.0663 11.4272 10.9066C11.2675 10.7469 11.0696 10.667 10.8335 10.667H9.16683C8.93072 10.667 8.7328 10.7469 8.57308 10.9066C8.41336 11.0663 8.3335 11.2642 8.3335 11.5003V15.667C8.3335 15.9031 8.25363 16.101 8.09391 16.2607C7.93419 16.4205 7.73627 16.5003 7.50016 16.5003H5.00016C4.54183 16.5003 4.14947 16.3371 3.82308 16.0107C3.49669 15.6844 3.3335 15.292 3.3335 14.8337Z" fill="white" fill-opacity="0.72"/>
</svg>
