<svg width="20" height="20" viewBox="0 0 20 20" fill="none" xmlns="http://www.w3.org/2000/svg">
<path d="M5.83341 15.7913C5.15286 15.7913 4.61119 15.9441 4.20841 16.2497C3.80564 16.5552 3.24314 16.7705 2.52091 16.8955C2.2848 16.9372 2.08341 16.8816 1.91675 16.7288C1.75008 16.5761 1.66675 16.3816 1.66675 16.1455C1.66675 15.9094 1.74661 15.7115 1.90633 15.5518C2.06605 15.392 2.26397 15.2775 2.50008 15.208C3.00008 15.0552 3.4723 14.8434 3.91675 14.5726C4.36119 14.3018 5.00008 14.1663 5.83341 14.1663C6.36119 14.1663 6.79522 14.2254 7.1355 14.3434C7.47578 14.4615 7.79175 14.5934 8.08342 14.7393C8.37508 14.8851 8.66675 15.0205 8.95841 15.1455C9.25008 15.2705 9.5973 15.333 10.0001 15.333C10.4029 15.333 10.7501 15.2705 11.0417 15.1455C11.3334 15.0205 11.6251 14.8851 11.9167 14.7393C12.2084 14.5934 12.5279 14.4615 12.8751 14.3434C13.2223 14.2254 13.6529 14.1663 14.1667 14.1663C15.0001 14.1663 15.639 14.3018 16.0834 14.5726C16.5279 14.8434 17.0001 15.0552 17.5001 15.208C17.7362 15.2775 17.9341 15.392 18.0938 15.5518C18.2536 15.7115 18.3334 15.9094 18.3334 16.1455C18.3334 16.3816 18.2501 16.5761 18.0834 16.7288C17.9167 16.8816 17.7154 16.9372 17.4792 16.8955C16.757 16.7705 16.1945 16.5552 15.7917 16.2497C15.389 15.9441 14.8473 15.7913 14.1667 15.7913C13.7779 15.7913 13.4411 15.8504 13.1563 15.9684C12.8716 16.0865 12.5869 16.2184 12.3022 16.3643C12.0174 16.5101 11.698 16.6455 11.3438 16.7705C10.9897 16.8955 10.5417 16.958 10.0001 16.958C9.45841 16.958 9.0105 16.8955 8.65633 16.7705C8.30216 16.6455 7.98272 16.5101 7.698 16.3643C7.41328 16.2184 7.13203 16.0865 6.85425 15.9684C6.57647 15.8504 6.23619 15.7913 5.83341 15.7913ZM5.83341 12.083C5.15286 12.083 4.61119 12.2358 4.20841 12.5413C3.80564 12.8469 3.24314 13.0622 2.52091 13.1872C2.2848 13.2288 2.08341 13.1733 1.91675 13.0205C1.75008 12.8677 1.66675 12.6733 1.66675 12.4372C1.66675 12.2011 1.74661 12.0031 1.90633 11.8434C2.06605 11.6837 2.26397 11.5691 2.50008 11.4997C3.00008 11.3469 3.4723 11.1351 3.91675 10.8643C4.36119 10.5934 5.00008 10.458 5.83341 10.458C6.36119 10.458 6.79522 10.517 7.1355 10.6351C7.47578 10.7531 7.79175 10.8851 8.08342 11.0309C8.37508 11.1768 8.66675 11.3122 8.95841 11.4372C9.25008 11.5622 9.5973 11.6247 10.0001 11.6247C10.4029 11.6247 10.7501 11.5622 11.0417 11.4372C11.3334 11.3122 11.6251 11.1768 11.9167 11.0309C12.2084 10.8851 12.5279 10.7531 12.8751 10.6351C13.2223 10.517 13.6529 10.458 14.1667 10.458C15.0001 10.458 15.639 10.5934 16.0834 10.8643C16.5279 11.1351 17.0001 11.3469 17.5001 11.4997C17.7362 11.5691 17.9341 11.6837 18.0938 11.8434C18.2536 12.0031 18.3334 12.2011 18.3334 12.4372C18.3334 12.6733 18.2501 12.8677 18.0834 13.0205C17.9167 13.1733 17.7154 13.2288 17.4792 13.1872C16.757 13.0622 16.1945 12.8469 15.7917 12.5413C15.389 12.2358 14.8473 12.083 14.1667 12.083C13.764 12.083 13.4202 12.142 13.1355 12.2601C12.8508 12.3781 12.5661 12.5101 12.2813 12.6559C11.9966 12.8018 11.6806 12.9372 11.3334 13.0622C10.9862 13.1872 10.5417 13.2497 10.0001 13.2497C9.45841 13.2497 9.0105 13.1872 8.65633 13.0622C8.30216 12.9372 7.98272 12.8018 7.698 12.6559C7.41328 12.5101 7.13203 12.3781 6.85425 12.2601C6.57647 12.142 6.23619 12.083 5.83341 12.083Z" fill="#171717"/>
<path fill-rule="evenodd" clip-rule="evenodd" d="M15.7989 8.97137C15.8217 8.76182 15.8334 8.54894 15.8334 8.33333C15.8334 5.11167 13.2217 2.5 10.0001 2.5C6.77842 2.5 4.16675 5.11167 4.16675 8.33333C4.16675 8.54894 4.17845 8.76182 4.20124 8.97136C4.72838 8.83962 5.2841 8.7915 5.83341 8.7915C6.46873 8.7915 7.10451 8.86038 7.68179 9.06066C8.08321 9.19993 8.46637 9.35917 8.82877 9.54038C9.09204 9.67201 9.3541 9.79364 9.61495 9.90543C9.65139 9.92105 9.7645 9.95817 10.0001 9.95817C10.2357 9.95817 10.3488 9.92105 10.3852 9.90543C10.6461 9.79363 10.9081 9.67201 11.1714 9.54038C11.5383 9.3569 11.9285 9.19672 12.3386 9.0573C12.9125 8.86215 13.5378 8.7915 14.1667 8.7915C14.7161 8.7915 15.2718 8.83963 15.7989 8.97137ZM14.4602 12.0932C14.3654 12.0865 14.2676 12.0832 14.1667 12.0832C13.8806 12.0832 13.6243 12.113 13.3978 12.1725C13.3054 12.1968 13.218 12.2261 13.1355 12.2603C12.9706 12.3286 12.8057 12.4016 12.6409 12.4793C12.521 12.5358 12.4012 12.5947 12.2813 12.6561C12.0947 12.7517 11.8947 12.8428 11.6812 12.9294C11.569 12.975 11.4531 13.0193 11.3334 13.0623C10.9862 13.1873 10.5417 13.2498 10.0001 13.2498C9.45842 13.2498 9.0105 13.1873 8.65633 13.0623C8.53928 13.021 8.42603 12.9786 8.31656 12.935C8.09481 12.8467 7.88862 12.7537 7.698 12.6561C7.58332 12.5973 7.4692 12.5409 7.35564 12.4866C7.18727 12.4062 7.02014 12.3308 6.85425 12.2603C6.77514 12.2266 6.69097 12.1978 6.60173 12.1738C6.3776 12.1134 6.12149 12.0832 5.83341 12.0832C5.73256 12.0832 5.63475 12.0865 5.53999 12.0932C5.16061 11.6437 4.84796 11.1359 4.61733 10.5853C4.96183 10.5006 5.36719 10.4582 5.83341 10.4582C6.36119 10.4582 6.79522 10.5172 7.1355 10.6353C7.25645 10.6772 7.37433 10.7209 7.48913 10.7664C7.69733 10.8489 7.89542 10.9371 8.08342 11.0311C8.20272 11.0907 8.32203 11.1487 8.44133 11.2048C8.61369 11.286 8.78605 11.3635 8.95841 11.4373C9.035 11.4702 9.11542 11.4987 9.19967 11.5229C9.43626 11.5909 9.70307 11.6248 10.0001 11.6248C10.289 11.6248 10.5494 11.5927 10.7812 11.5283C10.8725 11.503 10.9593 11.4727 11.0417 11.4373C11.2085 11.3659 11.3753 11.291 11.542 11.2127C11.6669 11.1541 11.7918 11.0935 11.9167 11.0311C12.1049 10.937 12.3047 10.8487 12.516 10.7662C12.6322 10.7208 12.7519 10.6771 12.8751 10.6353C13.2223 10.5172 13.6529 10.4582 14.1667 10.4582C14.633 10.4582 15.0383 10.5006 15.3828 10.5853C15.1522 11.1359 14.8396 11.6437 14.4602 12.0932Z" fill="#171717"/>
</svg>
