<svg width="10" height="6" viewBox="0 0 10 6" fill="none" xmlns="http://www.w3.org/2000/svg">
<path d="M5 6C4.88042 6 4.76831 5.98092 4.66368 5.94275C4.55904 5.90459 4.46188 5.83971 4.3722 5.74811L0.246637 1.53471C0.0822123 1.36679 0 1.15306 0 0.893542C0 0.634021 0.0822123 0.420298 0.246637 0.252373C0.411061 0.0844476 0.620329 0.000484927 0.874439 0.000484927C1.12855 0.000484927 1.81818 0 1.81818 0L5 0.000484927L8.18182 0.00083664C8.63636 0 8.87145 0.000484927 9.12556 0.000484927C9.37967 0.000484927 9.58894 0.0844476 9.75336 0.252373C9.91779 0.420298 10 0.634021 10 0.893542C10 1.15306 9.91779 1.36679 9.75336 1.53471L5.6278 5.74811C5.53812 5.83971 5.44096 5.90459 5.33632 5.94275C5.23169 5.98092 5.11958 6 5 6Z" fill="#FA4F52"/>
</svg>
