<svg width="10" height="6" viewBox="0 0 10 6" fill="none" xmlns="http://www.w3.org/2000/svg">
<path d="M5 0C4.88042 0 4.76831 0.0190825 4.66368 0.0572476C4.55904 0.0954123 4.46188 0.160293 4.3722 0.251888L0.246637 4.46529C0.0822123 4.63321 0 4.84694 0 5.10646C0 5.36598 0.0822123 5.5797 0.246637 5.74763C0.411061 5.91555 0.620329 5.99952 0.874439 5.99952C1.12855 5.99952 1.81818 6 1.81818 6L5 5.99952L8.18182 5.99916C8.63636 6 8.87145 5.99952 9.12556 5.99952C9.37967 5.99952 9.58894 5.91555 9.75336 5.74763C9.91779 5.5797 10 5.36598 10 5.10646C10 4.84694 9.91779 4.63321 9.75336 4.46529L5.6278 0.251888C5.53812 0.160293 5.44096 0.0954123 5.33632 0.0572476C5.23169 0.0190825 5.11958 0 5 0Z" fill="#62E43A"/>
</svg>
