<svg width="18" height="18" viewBox="0 0 18 18" fill="none" xmlns="http://www.w3.org/2000/svg">
<g clipPath="url(#clip0_185_1502)">
<path d="M17.0941 11.3833C16.2416 10.8883 15.7192 9.98085 15.7192 9C15.7192 8.01915 16.2416 7.11166 17.0941 6.61666C17.2408 6.52499 17.2958 6.34167 17.2042 6.195L15.6733 3.555C15.6183 3.45416 15.5175 3.39918 15.4167 3.39918C15.3616 3.39918 15.3067 3.4175 15.2608 3.445C14.8391 3.68333 14.3625 3.81166 13.8858 3.81166C13.4 3.81166 12.9233 3.68332 12.4925 3.43582C11.64 2.94082 11.1175 2.0425 11.1175 1.06166C11.1175 0.887497 10.98 0.75 10.815 0.75H7.18499C7.01999 0.75 6.8825 0.887497 6.8825 1.06166C6.8825 2.0425 6.36 2.94082 5.5075 3.43582C5.07667 3.68332 4.60001 3.81166 4.11418 3.81166C3.63751 3.81166 3.16084 3.68333 2.73918 3.445C2.59251 3.35333 2.40916 3.40833 2.32666 3.555L0.786675 6.195C0.759173 6.24083 0.75 6.29584 0.75 6.34167C0.75 6.45167 0.805013 6.5525 0.905842 6.61666C1.75834 7.11166 2.28085 8.01 2.28085 8.99085C2.28085 9.97934 1.75992 10.8856 0.918838 11.3811C0.916326 11.3826 0.913455 11.3833 0.91054 11.3833C0.90747 11.3833 0.904442 11.3842 0.901861 11.3859C0.758191 11.4783 0.70499 11.6596 0.795825 11.805L2.32666 14.445C2.38167 14.5458 2.4825 14.6008 2.58333 14.6008C2.63833 14.6008 2.69335 14.5825 2.73918 14.555C3.60085 14.0692 4.655 14.0692 5.5075 14.5642C6.35083 15.0592 6.87333 15.9575 6.87333 16.9383C6.87333 17.1125 7.01082 17.25 7.18499 17.25H10.815C10.98 17.25 11.1175 17.1125 11.1175 16.9383C11.1175 15.9575 11.64 15.0592 12.4925 14.5642C12.9233 14.3167 13.4 14.1883 13.8858 14.1883C14.3625 14.1883 14.8391 14.3167 15.2608 14.555C15.4075 14.6467 15.5908 14.5917 15.6733 14.445L17.2133 11.805C17.2408 11.7592 17.25 11.7041 17.25 11.6583C17.25 11.5483 17.195 11.4475 17.0941 11.3833ZM9 11.75C7.47833 11.75 6.25 10.5217 6.25 9C6.25 7.47833 7.47833 6.25 9 6.25C10.5217 6.25 11.75 7.47833 11.75 9C11.75 10.5217 10.5217 11.75 9 11.75Z" fill="#666666"/>
</g>
<defs>
<clipPath id="clip0_185_1502">
<rect width="18" height="18" fill="white"/>
</clipPath>
</defs>
</svg>
