<svg width="22" height="26" viewBox="0 0 22 26" fill="none" xmlns="http://www.w3.org/2000/svg">
<path d="M7.00002 14.3334C6.62225 14.3334 6.30558 14.2056 6.05002 13.9501C5.79447 13.6945 5.66669 13.3778 5.66669 13.0001V4.76673L3.16669 7.26673C2.92225 7.51118 2.61669 7.6334 2.25002 7.6334C1.88336 7.6334 1.56669 7.51118 1.30002 7.26673C1.03336 7.00006 0.900024 6.6834 0.900024 6.31673C0.900024 5.95006 1.03336 5.6334 1.30002 5.36673L6.06669 0.600065C6.20002 0.466732 6.34447 0.372287 6.50002 0.316732C6.65558 0.261176 6.82225 0.233398 7.00002 0.233398C7.1778 0.233398 7.34447 0.261176 7.50002 0.316732C7.65558 0.372287 7.80002 0.466732 7.93336 0.600065L12.7334 5.40006C13 5.66673 13.1278 5.97784 13.1167 6.3334C13.1056 6.68895 12.9667 7.00006 12.7 7.26673C12.4334 7.51118 12.1222 7.63895 11.7667 7.65006C11.4111 7.66118 11.1 7.5334 10.8334 7.26673L8.33336 4.76673V13.0001C8.33336 13.3778 8.20558 13.6945 7.95002 13.9501C7.69447 14.2056 7.3778 14.3334 7.00002 14.3334ZM15 25.7667C14.8222 25.7667 14.6556 25.739 14.5 25.6834C14.3445 25.6278 14.2 25.5334 14.0667 25.4001L9.26669 20.6001C9.00002 20.3334 8.87225 20.0223 8.88336 19.6667C8.89447 19.3112 9.03336 19.0001 9.30002 18.7334C9.56669 18.489 9.8778 18.3612 10.2334 18.3501C10.5889 18.339 10.9 18.4667 11.1667 18.7334L13.6667 21.2334V13.0001C13.6667 12.6223 13.7945 12.3056 14.05 12.0501C14.3056 11.7945 14.6222 11.6667 15 11.6667C15.3778 11.6667 15.6945 11.7945 15.95 12.0501C16.2056 12.3056 16.3334 12.6223 16.3334 13.0001V21.2334L18.8334 18.7334C19.0778 18.489 19.3834 18.3667 19.75 18.3667C20.1167 18.3667 20.4334 18.489 20.7 18.7334C20.9667 19.0001 21.1 19.3167 21.1 19.6834C21.1 20.0501 20.9667 20.3667 20.7 20.6334L15.9334 25.4001C15.8 25.5334 15.6556 25.6278 15.5 25.6834C15.3445 25.739 15.1778 25.7667 15 25.7667Z" fill="#666666"/>
</svg>
