<svg width="20" height="20" viewBox="0 0 20 20" fill="none" xmlns="http://www.w3.org/2000/svg">
<path d="M4.16643 12.6247V6.66634C4.16643 5.74967 4.49282 4.96495 5.1456 4.31217C5.79838 3.6594 6.5831 3.33301 7.49977 3.33301C8.41643 3.33301 9.20115 3.6594 9.85393 4.31217C10.5067 4.96495 10.8331 5.74967 10.8331 6.66634V12.4997C10.8331 12.958 10.9963 13.3504 11.3227 13.6768C11.6491 14.0031 12.0414 14.1663 12.4998 14.1663C12.9581 14.1663 13.3505 14.0031 13.6768 13.6768C14.0032 13.3504 14.1664 12.958 14.1664 12.4997V6.54134L13.4373 7.27051C13.2706 7.43717 13.0727 7.51704 12.8435 7.51009C12.6143 7.50315 12.4164 7.41634 12.2498 7.24967C12.097 7.08301 12.0171 6.88856 12.0102 6.66634C12.0032 6.44412 12.0831 6.24967 12.2498 6.08301L14.4164 3.91634C14.4998 3.83301 14.59 3.77398 14.6873 3.73926C14.7845 3.70454 14.8887 3.68717 14.9998 3.68717C15.1109 3.68717 15.215 3.70454 15.3123 3.73926C15.4095 3.77398 15.4998 3.83301 15.5831 3.91634L17.7498 6.08301C17.9164 6.24967 17.9963 6.44412 17.9893 6.66634C17.9824 6.88856 17.9025 7.08301 17.7498 7.24967C17.5831 7.41634 17.3852 7.50315 17.156 7.51009C16.9268 7.51704 16.7289 7.43717 16.5623 7.27051L15.8331 6.54134V12.4997C15.8331 13.4163 15.5067 14.2011 14.8539 14.8538C14.2012 15.5066 13.4164 15.833 12.4998 15.833C11.5831 15.833 10.7984 15.5066 10.1456 14.8538C9.49282 14.2011 9.16643 13.4163 9.16643 12.4997V6.66634C9.16643 6.20801 9.00324 5.81565 8.67685 5.48926C8.35046 5.16287 7.9581 4.99967 7.49977 4.99967C7.04143 4.99967 6.64907 5.16287 6.32268 5.48926C5.99629 5.81565 5.8331 6.20801 5.8331 6.66634V12.6247L6.56227 11.8955C6.72893 11.7288 6.92685 11.649 7.15602 11.6559C7.38518 11.6629 7.5831 11.7497 7.74977 11.9163C7.90254 12.083 7.9824 12.2775 7.98935 12.4997C7.99629 12.7219 7.91643 12.9163 7.74977 13.083L5.5831 15.2497C5.49977 15.333 5.40949 15.392 5.31227 15.4268C5.21504 15.4615 5.11088 15.4788 4.99977 15.4788C4.88865 15.4788 4.78449 15.4615 4.68727 15.4268C4.59004 15.392 4.49977 15.333 4.41643 15.2497L2.24977 13.083C2.0831 12.9163 2.00324 12.7219 2.01018 12.4997C2.01713 12.2775 2.09699 12.083 2.24977 11.9163C2.41643 11.7497 2.61435 11.6629 2.84352 11.6559C3.07268 11.649 3.2706 11.7288 3.43727 11.8955L4.16643 12.6247Z" fill="white" fill-opacity="0.72"/>
</svg>
