<svg width="20" height="20" viewBox="0 0 20 20" fill="none" xmlns="http://www.w3.org/2000/svg">
<path d="M4.16668 12.6247V6.66634C4.16668 5.74967 4.49307 4.96495 5.14584 4.31217C5.79862 3.6594 6.58334 3.33301 7.50001 3.33301C8.41668 3.33301 9.2014 3.6594 9.85418 4.31217C10.507 4.96495 10.8333 5.74967 10.8333 6.66634V12.4997C10.8333 12.958 10.9965 13.3504 11.3229 13.6768C11.6493 14.0031 12.0417 14.1663 12.5 14.1663C12.9583 14.1663 13.3507 14.0031 13.6771 13.6768C14.0035 13.3504 14.1667 12.958 14.1667 12.4997V6.54134L13.4375 7.27051C13.2708 7.43717 13.0729 7.51704 12.8438 7.51009C12.6146 7.50315 12.4167 7.41634 12.25 7.24967C12.0972 7.08301 12.0174 6.88856 12.0104 6.66634C12.0035 6.44412 12.0833 6.24967 12.25 6.08301L14.4167 3.91634C14.5 3.83301 14.5903 3.77398 14.6875 3.73926C14.7847 3.70454 14.8889 3.68717 15 3.68717C15.1111 3.68717 15.2153 3.70454 15.3125 3.73926C15.4097 3.77398 15.5 3.83301 15.5833 3.91634L17.75 6.08301C17.9167 6.24967 17.9965 6.44412 17.9896 6.66634C17.9826 6.88856 17.9028 7.08301 17.75 7.24967C17.5833 7.41634 17.3854 7.50315 17.1563 7.51009C16.9271 7.51704 16.7292 7.43717 16.5625 7.27051L15.8333 6.54134V12.4997C15.8333 13.4163 15.507 14.2011 14.8542 14.8538C14.2014 15.5066 13.4167 15.833 12.5 15.833C11.5833 15.833 10.7986 15.5066 10.1458 14.8538C9.49307 14.2011 9.16668 13.4163 9.16668 12.4997V6.66634C9.16668 6.20801 9.00348 5.81565 8.67709 5.48926C8.3507 5.16287 7.95834 4.99967 7.50001 4.99967C7.04168 4.99967 6.64932 5.16287 6.32293 5.48926C5.99654 5.81565 5.83334 6.20801 5.83334 6.66634V12.6247L6.56251 11.8955C6.72918 11.7288 6.92709 11.649 7.15626 11.6559C7.38543 11.6629 7.58334 11.7497 7.75001 11.9163C7.90279 12.083 7.98265 12.2775 7.98959 12.4997C7.99654 12.7219 7.91668 12.9163 7.75001 13.083L5.58334 15.2497C5.50001 15.333 5.40973 15.392 5.31251 15.4268C5.21529 15.4615 5.11112 15.4788 5.00001 15.4788C4.8889 15.4788 4.78473 15.4615 4.68751 15.4268C4.59029 15.392 4.50001 15.333 4.41668 15.2497L2.25001 13.083C2.08334 12.9163 2.00348 12.7219 2.01043 12.4997C2.01737 12.2775 2.09723 12.083 2.25001 11.9163C2.41668 11.7497 2.61459 11.6629 2.84376 11.6559C3.07293 11.649 3.27084 11.7288 3.43751 11.8955L4.16668 12.6247Z" fill="white" fill-opacity="0.72"/>
</svg>
