<svg width="17" height="22" viewBox="0 0 17 22" fill="none" xmlns="http://www.w3.org/2000/svg">
<path d="M13.3621 6.36493C11.7349 5.22835 9.13055 5.6331 8.03076 5.98062C11.9025 5.98062 13.4766 7.96352 13.7832 8.95292C14.237 9.35768 15.2959 9.77061 15.7702 9.92597C15.6475 9.21049 14.9893 7.50152 13.3621 6.36493Z" fill="white"/>
<path d="M14.674 15.7534C16.5792 12.0738 14.9398 9.65755 13.8809 8.90527L14.1466 11.1539C14.2611 11.526 14.4696 12.3927 14.3633 12.8629C14.257 13.3331 14.5268 14.9848 14.6781 15.7493L14.674 15.7534Z" fill="white"/>
<path d="M14.0241 15.6915C15.1321 14.2647 14.6047 11.4723 14.204 10.2539C13.6398 11.4436 12.3233 14.2115 11.5915 15.7529C10.6757 17.6785 11.3094 19.1708 11.3012 19.2321C11.432 18.1119 12.6381 17.4741 14.02 15.6956L14.0241 15.6915Z" fill="white"/>
<path d="M3.66016 3.27441C4.22027 4.3047 5.3446 6.37346 5.33642 6.40208L4.85398 6.44296L3.66016 3.27441Z" fill="white"/>
<path d="M3.65985 3.2793C4.21588 4.31367 5.30749 6.3906 5.33611 6.40287L5.65501 6.01447L3.65576 3.28339L3.65985 3.2793Z" fill="white"/>
<path d="M1.30469 5.37225C2.19597 6.13679 3.98262 7.66996 3.98262 7.69858L3.54516 7.90709L1.30469 5.36816V5.37225Z" fill="white"/>
<path d="M1.30536 5.37988C2.19255 6.14851 3.95058 7.70212 3.98329 7.70212L4.14274 7.22377L1.30127 5.37988H1.30536Z" fill="white"/>
<path d="M8.64407 19.4739C8.88528 18.1165 10.8477 16.6774 11.7963 16.1295C13.6238 14.5228 13.8119 11.9389 13.6729 10.8472L11.555 10.3525C11.2648 11.0966 10.5697 12.7034 10.0873 13.1449C9.48629 13.6969 6.63255 13.9136 6.50172 17.1394C6.39542 19.7192 7.96538 21.4813 8.7381 22.0005C8.56639 21.747 8.40285 20.8312 8.63998 19.4739H8.64407Z" fill="white"/>
<path d="M13.7711 8.61429C12.7122 5.99769 9.38417 5.781 7.851 6.00178C10.0056 6.30023 10.6189 8.25451 10.6925 9.20303C10.6925 10.7321 9.60904 12.7518 7.80603 14.0765C6.03982 15.3725 6.23198 16.8362 6.5059 17.4944C6.68988 16.8689 7.42172 15.4338 8.86494 14.702C10.3082 13.9702 11.0236 12.4247 11.1994 11.742C11.3671 14.3913 10.1078 15.4584 10.1773 15.4379C12.3074 14.7878 13.1169 12.4084 13.1987 11.5989C13.1415 12.1958 13.5585 12.9726 13.7752 13.2833C14.2167 12.8172 14.8341 11.2309 13.7752 8.61429H13.7711Z" fill="white"/>
<path d="M0.430176 2.38281C1.90202 3.96095 4.85388 7.1295 4.84979 7.18674L4.00757 7.48111L0.430176 2.38281Z" fill="white"/>
<path d="M0.430176 2.39648C1.89384 3.9828 4.79255 7.18406 4.84979 7.18814L5.24228 6.34592L0.430176 2.39648Z" fill="white"/>
<path d="M7.0045 2.5752C7.04129 3.74858 7.1108 6.09944 7.09035 6.12397L6.64062 5.94408L7.0045 2.57928V2.5752Z" fill="white"/>
<path d="M7.00049 2.5791C7.02911 3.75249 7.06999 6.09925 7.09043 6.12379L7.55243 5.91936L7.00049 2.5791Z" fill="white"/>
<path d="M10.4265 3.15253C9.91132 4.20735 8.87694 6.32107 8.84832 6.32925L8.5376 5.9572L10.4305 3.14844L10.4265 3.15253Z" fill="white"/>
<path d="M10.4183 3.15527C9.8991 4.206 8.83611 6.29929 8.84429 6.332L9.34716 6.36879L10.4183 3.15527Z" fill="white"/>
<path d="M13.1163 5.61346C12.135 6.25535 10.1644 7.54321 10.1358 7.53503L10.0581 7.05669L13.1204 5.60938L13.1163 5.61346Z" fill="white"/>
<path d="M13.1082 5.60938C12.1229 6.24717 10.14 7.50233 10.1318 7.53503L10.5448 7.82122L13.1082 5.60938Z" fill="white"/>
<path d="M4.53125 0.241211C5.1159 2.31405 6.28928 6.48427 6.26066 6.53333L5.37756 6.41068L4.53125 0.241211Z" fill="white"/>
<path d="M4.52686 0.25C5.10333 2.32693 6.21538 6.50532 6.26445 6.53394L7.00037 5.96565L4.52686 0.25Z" fill="white"/>
<path d="M8.9304 0C8.6115 2.13417 7.96961 6.41477 7.92464 6.44748L7.17236 5.97322L8.9304 0Z" fill="white"/>
<path d="M8.92154 0.0078125C8.59038 2.13789 7.89125 6.40214 7.92396 6.4512L8.82751 6.23452L8.92154 0.0078125Z" fill="white"/>
<path d="M13.5621 2.19141C12.168 3.83496 9.35922 7.13434 9.30198 7.13843L8.91357 6.33709L13.5621 2.19141Z" fill="white"/>
<path d="M13.5501 2.19141C12.1437 3.82678 9.29816 7.0771 9.30225 7.13843L10.1813 7.4328L13.5461 2.19549L13.5501 2.19141Z" fill="white"/>
<path d="M16.163 6.09961C14.1515 6.86824 10.1039 8.41367 10.0508 8.39323L10.0958 7.50195L16.163 6.09961Z" fill="white"/>
<path d="M16.1542 6.0957C14.1386 6.85615 10.0787 8.34026 10.0542 8.39341L10.6838 9.07209L16.1542 6.0957Z" fill="white"/>
<path d="M2.89125 13.3074C3.03434 13.1357 3.37777 12.964 3.52904 12.8986C3.52904 12.6656 3.61081 12.3835 3.64761 12.2731C4.47756 11.668 5.22166 11.4349 5.48741 11.394C7.74014 12.5797 8.52104 10.8993 8.62734 9.91403C7.76876 11.7048 6.33781 11.1324 5.72863 10.6254C4.25679 10.9034 3.31644 11.8806 3.03434 12.3344C2.77268 12.0278 2.77268 10.9688 2.80539 10.4823C3.12429 10.1552 3.8275 9.33347 4.11778 8.6875C4.40806 8.04152 4.75149 7.74307 4.88641 7.67765C5.47923 7.14206 7.10643 6.36526 8.85629 7.55908C10.6102 8.75291 10.4058 10.6663 10.1074 11.4717C10.4263 11.0588 10.6389 9.97945 10.6838 9.49701C10.8474 6.61874 8.41065 5.79288 6.66488 5.86238C4.53889 5.94824 3.25921 7.93522 2.88716 8.92054C1.99996 9.62375 1.30493 10.4333 1.07189 10.7481C0.928791 11.6925 1.22725 12.5756 1.39487 12.9027C1.87731 12.9027 2.5887 13.1766 2.88716 13.3115L2.89125 13.3074Z" fill="white"/>
<path d="M1.83256 11.505C2.05333 11.4722 2.454 11.2678 2.29046 10.6995C2.07377 10.6914 1.6772 10.8426 1.83256 11.505Z" fill="white"/>
<path d="M5.72045 8.44738C5.18077 8.68042 4.54706 9.23236 4.30176 9.48176C4.83326 7.7687 6.08023 7.33124 6.63626 7.32715C6.55449 7.60516 6.26012 8.21434 5.72045 8.44738Z" fill="white"/>
<path d="M5.72045 8.44738C5.18077 8.68042 4.54706 9.23236 4.30176 9.48176C4.83326 7.7687 6.08023 7.33124 6.63626 7.32715C6.55449 7.60516 6.26012 8.21434 5.72045 8.44738Z" fill="white"/>
</svg>
