<svg width="10" height="6" viewBox="0 0 10 6" fill="none" xmlns="http://www.w3.org/2000/svg">
<path d="M5.00016 0.521159C5.11127 0.521159 5.21544 0.53852 5.31266 0.573242C5.40988 0.607964 5.50016 0.666992 5.5835 0.750325L9.41683 4.58366C9.56961 4.73644 9.646 4.93088 9.646 5.16699C9.646 5.4031 9.56961 5.59755 9.41683 5.75033C9.26405 5.9031 9.06961 5.97949 8.8335 5.97949C8.59738 5.97949 8.40294 5.9031 8.25016 5.75033L5.00016 2.50033L1.75016 5.75033C1.59738 5.9031 1.40294 5.97949 1.16683 5.97949C0.930718 5.97949 0.736274 5.9031 0.583496 5.75033C0.430718 5.59755 0.354329 5.4031 0.354329 5.16699C0.354329 4.93088 0.430718 4.73644 0.583496 4.58366L4.41683 0.750325C4.50016 0.666992 4.59044 0.607964 4.68766 0.573242C4.78488 0.53852 4.88905 0.521159 5.00016 0.521159Z" fill="#E8EAED"/>
</svg>
