<svg width="66" height="144" viewBox="0 0 66 144" fill="none" xmlns="http://www.w3.org/2000/svg">
<mask id="mask0_828_2068" style="mask-type:alpha" maskUnits="userSpaceOnUse" x="0" y="0" width="66" height="144">
<rect width="66" height="144" fill="#D9D9D9"/>
</mask>
<g mask="url(#mask0_828_2068)">
<mask id="path-2-inside-1_828_2068" fill="white">
<path d="M1 39C1 18.0132 18.0132 1 39 1H410C430.987 1 448 18.0132 448 39V104C448 124.987 430.987 142 410 142H39C18.0132 142 1 124.987 1 104V39Z"/>
</mask>
<path d="M38.002 141.985C38.3336 141.994 38.6663 142 39 142C38.666 142 38.333 141.996 38.001 141.987H38.002V141.985ZM410.998 141.987C410.666 141.996 410.334 142 410 142C410.333 142 410.666 141.994 410.997 141.985L410.998 141.987ZM34.0391 141.658C34.6928 141.748 35.3516 141.823 36.0156 141.877V141.885L36.0146 141.888C35.35 141.837 34.6901 141.77 34.0352 141.687L34.0371 141.679L34.0391 141.658ZM414.963 141.679L414.964 141.687C414.309 141.77 413.649 141.837 412.984 141.888V141.885L412.983 141.877C413.647 141.823 414.306 141.748 414.96 141.658L414.963 141.679ZM30.1387 140.9C30.7787 141.062 31.4254 141.205 32.0781 141.332L32.0713 141.37L32.0684 141.385C31.4124 141.267 30.7623 141.132 30.1182 140.982L30.125 140.958L30.1387 140.9ZM418.875 140.958L418.881 140.982C418.237 141.132 417.587 141.267 416.931 141.385L416.929 141.37L416.921 141.332C417.574 141.205 418.22 141.062 418.86 140.9L418.875 140.958ZM26.3496 139.72C26.9676 139.951 27.5937 140.164 28.2266 140.361L28.2031 140.444L28.1914 140.481C27.5516 140.297 26.9188 140.096 26.293 139.881L26.3115 139.83L26.3496 139.72ZM422.688 139.83L422.706 139.881C422.08 140.096 421.447 140.297 420.808 140.481L420.797 140.444L420.772 140.361C421.405 140.164 422.031 139.951 422.649 139.72L422.688 139.83ZM22.7197 138.131C23.3086 138.428 23.9058 138.71 24.5117 138.975L24.4541 139.116L24.4258 139.183C23.808 138.934 23.1983 138.669 22.5967 138.39L22.6367 138.307L22.7197 138.131ZM426.363 138.307L426.402 138.39C425.801 138.669 425.191 138.934 424.573 139.183L424.546 139.116L424.487 138.975C425.093 138.71 425.69 138.428 426.279 138.131L426.363 138.307ZM19.291 136.163C19.8438 136.521 20.4065 136.864 20.9785 137.192L20.8652 137.401L20.8086 137.503C20.2193 137.192 19.6393 136.866 19.0684 136.525L19.1426 136.405L19.291 136.163ZM429.857 136.405L429.931 136.525C429.36 136.866 428.78 137.192 428.19 137.503L428.135 137.401L428.021 137.192C428.593 136.864 429.155 136.521 429.708 136.163L429.857 136.405ZM16.0977 133.847C16.6083 134.261 17.1302 134.661 17.6621 135.047L17.4746 135.32L17.3779 135.46C16.823 135.09 16.2775 134.706 15.7432 134.309L15.8662 134.149L16.0977 133.847ZM433.134 134.149L433.256 134.309C432.721 134.706 432.176 135.09 431.621 135.46L431.525 135.32L431.337 135.047C431.869 134.661 432.391 134.261 432.901 133.847L433.134 134.149ZM13.1768 131.211C13.6404 131.675 14.1158 132.127 14.6025 132.565L14.3203 132.896L14.168 133.074C13.6529 132.648 13.1505 132.208 12.6582 131.757L12.8428 131.564L13.1768 131.211ZM436.157 131.564L436.341 131.757C435.848 132.208 435.346 132.648 434.831 133.074L434.68 132.896L434.54 132.733L434.396 132.565C434.883 132.127 435.359 131.675 435.822 131.211L436.157 131.564ZM10.5518 128.296C10.9637 128.804 11.3884 129.301 11.8252 129.786L11.7969 129.812L11.7979 129.813L11.4355 130.157L11.2158 130.365C10.7463 129.889 10.2894 129.4 9.84473 128.899L10.1035 128.68L10.5518 128.296ZM438.896 128.68L439.154 128.899C438.71 129.4 438.253 129.889 437.783 130.365L437.564 130.157L437.202 129.813V129.812L437.174 129.786C437.611 129.301 438.035 128.804 438.447 128.296L438.896 128.68ZM8.24707 125.134C8.60398 125.681 8.97311 126.218 9.35645 126.744L8.85059 127.134L8.54883 127.365C8.12981 126.842 7.72416 126.308 7.33203 125.764L7.67969 125.525L8.08496 125.246L8.24707 125.134ZM440.907 125.241H440.908L441.32 125.525L441.667 125.764C441.275 126.308 440.869 126.842 440.45 127.365L440.149 127.134L439.643 126.744C440.026 126.218 440.395 125.681 440.752 125.134L440.907 125.241ZM6.28418 121.761C6.58301 122.34 6.89597 122.911 7.22266 123.472L6.59473 123.857L6.19727 124.101C5.83357 123.536 5.48331 122.963 5.14844 122.379L5.59863 122.135L5.6377 122.113L6.28418 121.761ZM442.962 121.896H442.963L443.401 122.135L443.851 122.379C443.516 122.963 443.165 123.536 442.802 124.101L442.405 123.857L441.776 123.472C442.103 122.911 442.416 122.34 442.715 121.761L442.962 121.896ZM4.67871 118.216C4.91658 118.821 5.16866 119.419 5.43555 120.008L4.69336 120.363L4.19043 120.603C3.88649 120.003 3.59854 119.394 3.3252 118.776L3.88379 118.546L4.67871 118.216ZM445.116 118.546L445.674 118.776C445.4 119.394 445.113 120.003 444.809 120.603L444.307 120.363L443.563 120.008C443.83 119.419 444.082 118.821 444.32 118.216L445.116 118.546ZM3.44043 114.534C3.61578 115.16 3.80831 115.778 4.01367 116.39L3.16992 116.688L2.69922 116.855L2.69824 116.854L2.55469 116.906C2.31438 116.277 2.08998 115.64 1.88184 114.995L2.55566 114.797L3.44043 114.534ZM446.444 114.797L447.117 114.995C446.909 115.64 446.685 116.277 446.444 116.906L446.301 116.854V116.855L445.83 116.688L444.985 116.39C445.191 115.778 445.383 115.16 445.559 114.534L446.444 114.797ZM2.58203 110.752C2.69369 111.391 2.82146 112.025 2.96387 112.653L2.52734 112.758L2.52832 112.759L2.04199 112.875L1.30957 113.05C1.13608 112.397 0.978917 111.739 0.838867 111.073L1.13867 111.019L1.62988 110.929L2.58203 110.752ZM447.37 110.929L447.861 111.019H447.86L448.161 111.073C448.021 111.739 447.863 112.397 447.689 113.05L446.958 112.875L446.472 112.759V112.758L446.035 112.653C446.178 112.025 446.305 111.391 446.417 110.752L447.37 110.929ZM2.10547 106.907C2.15317 107.555 2.21699 108.198 2.2959 108.836L1.32129 108.963L0.47168 109.073C0.367262 108.405 0.279061 107.732 0.208984 107.054L1.11523 106.984L2.10547 106.907ZM447.385 106.945H447.386L447.885 106.984L448.791 107.054C448.721 107.732 448.633 108.405 448.528 109.073L447.679 108.963L446.703 108.836C446.782 108.198 446.846 107.555 446.894 106.907L447.385 106.945ZM2.01074 104.972L1.0127 104.998L0.0527344 105.021C0.0185468 104.352 0 103.678 0 103V102.984H2V104L2.01074 104.972ZM449 103C449 103.678 448.981 104.352 448.947 105.021L447.987 104.998L446.988 104.972L447 104V102.984H449V103ZM2 98.9219V100.953H0V98.9219H2ZM449 98.9219V100.953H447V98.9219H449ZM2 94.8594V96.8906H0V94.8594H2ZM449 94.8594V96.8906H447V94.8594H449ZM2 90.7969V92.8281H0V90.7969H2ZM449 90.7969V92.8281H447V90.7969H449ZM2 86.7344V88.7656H0V86.7344H2ZM449 86.7344V88.7656H447V86.7344H449ZM2 82.6719V84.7031H0V82.6719H2ZM449 82.6719V84.7031H447V82.6719H449ZM2 78.6094V80.6406H0V78.6094H2ZM449 78.6094V80.6406H447V78.6094H449ZM2 74.5469V76.5781H0V74.5469H2ZM449 74.5469V76.5781H447V74.5469H449ZM2 70.4844V72.5156H0V70.4844H2ZM449 70.4844V72.5156H447V70.4844H449ZM2 66.4219V68.4531H0V66.4219H2ZM449 66.4219V68.4531H447V66.4219H449ZM2 62.3594V64.3906H0V62.3594H2ZM449 62.3594V64.3906H447V62.3594H449ZM2 58.2969V60.3281H0V58.2969H2ZM449 58.2969V60.3281H447V58.2969H449ZM2 54.2344V56.2656H0V54.2344H2ZM449 54.2344V56.2656H447V54.2344H449ZM2 50.1719V52.2031H0V50.1719H2ZM449 50.1719V52.2031H447V50.1719H449ZM2 46.1094V48.1406H0V46.1094H2ZM449 46.1094V48.1406H447V46.1094H449ZM2 42.0469V44.0781H0V42.0469H2ZM449 42.0469V44.0781H447V42.0469H449ZM2 40.0156H0V40C0 39.3216 0.0185139 38.6474 0.0527344 37.9775L1.0127 38.002L2.01074 38.0273C2.00284 38.3506 2 38.6748 2 39V40.0156ZM449 40V40.0156H447V39C447 38.6748 446.996 38.3506 446.988 38.0273L447.987 38.002L448.947 37.9775C448.981 38.6474 449 39.3216 449 40ZM0.47168 33.9258L1.32129 34.0371L1.81738 34.1016H1.81641L2.2959 34.1631C2.21697 34.8012 2.15318 35.4442 2.10547 36.0918L1.61426 36.0537V36.0547L1.11523 36.0156L0.208984 35.9453C0.279078 35.2668 0.367246 34.5935 0.47168 33.9258ZM448.528 33.9258C448.633 34.5935 448.721 35.2668 448.791 35.9453L447.885 36.0156L447.386 36.0547L447.385 36.0537L446.894 36.0918C446.846 35.4442 446.782 34.8012 446.703 34.1631L447.679 34.0371L448.528 33.9258ZM1.55566 30.0088L2.52832 30.2412H2.52734L2.96387 30.3457C2.82145 30.9737 2.69371 31.6076 2.58203 32.2471L1.62988 32.0713L1.13867 31.9814V31.9805L0.838867 31.9258C0.978933 31.2605 1.13606 30.6016 1.30957 29.9492L1.55566 30.0088ZM447.689 29.9492C447.863 30.6016 448.021 31.2604 448.161 31.9258L447.86 31.9805L447.861 31.9814L447.37 32.0713L446.417 32.2471C446.305 31.6075 446.178 30.9737 446.035 30.3457L446.472 30.2412L447.444 30.0088L447.689 29.9492ZM3.16992 26.3115L4.01367 26.6094C3.8083 27.2212 3.6158 27.8394 3.44043 28.4648L2.55566 28.2031L1.88184 28.0039C2.09 27.3593 2.31437 26.7222 2.55469 26.0928L3.16992 26.3115ZM446.444 26.0928C446.685 26.7222 446.909 27.3593 447.117 28.0039L446.444 28.2031L445.559 28.4648C445.383 27.8394 445.191 27.2212 444.985 26.6094L445.83 26.3115L446.444 26.0928ZM4.69336 22.6367L5.43555 22.9912C5.16865 23.5805 4.9166 24.178 4.67871 24.7832L3.88379 24.4541L3.3252 24.2227C3.59855 23.6055 3.88648 22.9963 4.19043 22.3965L4.69336 22.6367ZM444.809 22.3965C445.113 22.9963 445.4 23.6055 445.674 24.2227L445.116 24.4541L444.32 24.7832C444.082 24.178 443.83 23.5805 443.563 22.9912L444.307 22.6367L444.809 22.3965ZM6.59473 19.1426L7.22266 19.5273C6.89597 20.0885 6.58302 20.6589 6.28418 21.2383L6.03711 21.1035V21.1045L5.59863 20.8652L5.14844 20.6201C5.48332 20.0364 5.83356 19.4627 6.19727 18.8984L6.59473 19.1426ZM442.802 18.8984C443.165 19.4627 443.516 20.0364 443.851 20.6201L443.401 20.8652L442.963 21.1045L442.962 21.1035L442.715 21.2383C442.416 20.6589 442.103 20.0885 441.776 19.5273L442.405 19.1426L442.802 18.8984ZM8.85059 15.8662L9.35645 16.2549C8.97311 16.781 8.60398 17.3185 8.24707 17.8652L8.0918 17.7578V17.7588L7.67969 17.4746L7.33203 17.2354C7.72416 16.6908 8.12981 16.1568 8.54883 15.6338L8.85059 15.8662ZM440.45 15.6338C440.869 16.1568 441.275 16.6908 441.667 17.2354L441.32 17.4746L440.908 17.7588L440.907 17.7578L440.752 17.8652C440.395 17.3185 440.026 16.781 439.643 16.2549L440.149 15.8662L440.45 15.6338ZM11.2158 12.6338L11.4355 12.8428L11.8252 13.2129C11.3884 13.6981 10.9637 14.1949 10.5518 14.7031L10.1035 14.3203L9.84473 14.0996C10.2894 13.5994 10.7463 13.1104 11.2158 12.6338ZM437.783 12.6338C438.253 13.1104 438.71 13.5994 439.154 14.0996L438.896 14.3203L438.447 14.7031C438.035 14.1949 437.611 13.6981 437.174 13.2129L437.564 12.8428L437.783 12.6338ZM14.168 9.9248L14.3203 10.1035L14.6025 10.4336C14.1158 10.8724 13.6404 11.324 13.1768 11.7881L12.8428 11.4355L12.6582 11.2422C13.1505 10.791 13.6529 10.3505 14.168 9.9248ZM434.831 9.9248C435.346 10.3505 435.848 10.791 436.341 11.2422L436.157 11.4355L435.841 11.7695L435.822 11.7881C435.359 11.324 434.883 10.8724 434.396 10.4336L434.68 10.1035L434.831 9.9248ZM17.3779 7.53906L17.4746 7.67969L17.6621 7.95215C17.1302 8.33845 16.6083 8.73846 16.0977 9.15234L15.8662 8.85059L15.7432 8.69043C16.2775 8.29284 16.823 7.90944 17.3779 7.53906ZM431.621 7.53906C432.176 7.90944 432.721 8.29285 433.256 8.69043L433.134 8.85059L432.901 9.15234C432.391 8.73846 431.869 8.33845 431.337 7.95215L431.525 7.67969L431.539 7.66016L431.621 7.53906ZM20.8652 5.59863L20.9785 5.80664C20.4065 6.1349 19.8438 6.47792 19.291 6.83594L19.1426 6.59473L19.0684 6.47363C19.6392 6.1335 20.2193 5.8074 20.8086 5.49609L20.8652 5.59863ZM428.19 5.49609C428.78 5.80739 429.36 6.13351 429.931 6.47363L429.857 6.59473L429.708 6.83594C429.155 6.47793 428.592 6.1349 428.021 5.80664L428.135 5.59863L428.19 5.49609ZM24.4541 3.88379L24.5117 4.02441C23.9058 4.2895 23.3085 4.57136 22.7197 4.86816L22.6367 4.69336L22.5967 4.60938C23.1983 4.33006 23.808 4.06547 24.4258 3.81641L24.4541 3.88379ZM424.573 3.81641C425.191 4.06546 425.801 4.33008 426.402 4.60938L426.363 4.69336L426.279 4.86816C425.69 4.57137 425.093 4.28948 424.487 4.02441L424.546 3.88379L424.573 3.81641ZM28.2031 2.55566L28.2266 2.6377C27.5937 2.83522 26.9676 3.04839 26.3496 3.2793L26.3115 3.16992L26.293 3.11816C26.9188 2.90258 27.5516 2.70174 28.1914 2.51758L28.2031 2.55566ZM420.808 2.51758C421.447 2.70173 422.08 2.90259 422.706 3.11816L422.688 3.16992L422.649 3.2793C422.031 3.0484 421.405 2.83521 420.772 2.6377L420.797 2.55566L420.808 2.51758ZM32.0713 1.62988L32.0781 1.66699C31.4255 1.79386 30.7787 1.93706 30.1387 2.09863L30.125 2.04199L30.1182 2.0166C30.7623 1.86657 31.4124 1.73192 32.0684 1.61426L32.0713 1.62988ZM416.931 1.61426C417.587 1.73191 418.237 1.86659 418.881 2.0166L418.875 2.04199L418.86 2.09863C418.22 1.93708 417.574 1.79384 416.921 1.66699L416.929 1.62988L416.931 1.61426ZM36.0156 1.11523V1.12207C35.3516 1.1765 34.6928 1.25085 34.0391 1.34082L34.0371 1.32129L34.0352 1.3125C34.6901 1.22929 35.35 1.16164 36.0146 1.11133L36.0156 1.11523ZM412.984 1.11133C413.649 1.16162 414.309 1.22931 414.964 1.3125L414.963 1.32129L414.96 1.34082C414.306 1.25087 413.647 1.17649 412.983 1.12207L412.984 1.11523V1.11133ZM39 1C38.6663 1 38.3336 1.00465 38.002 1.01367V1.0127L38.001 1.01172C38.333 1.00337 38.666 1 39 1ZM410.998 1.01172V1.0127L410.997 1.01367C410.666 1.00467 410.333 1 410 1C410.334 1 410.666 1.00339 410.998 1.01172Z" fill="#33F498" fill-opacity="0.5" mask="url(#path-2-inside-1_828_2068)"/>
<mask id="path-4-inside-2_828_2068" fill="white">
<path d="M5.56122 37.9166C5.56122 19.6913 20.3358 4.91666 38.5612 4.91666H410.439C428.664 4.91666 443.439 19.6913 443.439 37.9167V105.083C443.439 123.309 428.664 138.083 410.439 138.083H38.5612C20.3358 138.083 5.56122 123.309 5.56122 105.083V37.9166Z"/>
</mask>
<path d="M411.259 138.073L410.439 138.084C410.715 138.084 410.99 138.078 411.264 138.072C411.263 138.072 411.261 138.073 411.259 138.073ZM37.735 138.072H37.6784C37.6396 138.071 37.6009 138.068 37.5622 138.067V138.065C37.6198 138.067 37.6774 138.07 37.735 138.072ZM411.437 138.067C411.38 138.069 411.322 138.071 411.264 138.072C411.322 138.07 411.38 138.067 411.437 138.065V138.067ZM33.5983 137.682C34.2505 137.788 34.9093 137.872 35.5739 137.936L35.5729 137.95L35.572 137.952C34.9064 137.894 34.2465 137.818 33.5925 137.722L33.5944 137.712L33.5983 137.682ZM415.406 137.712L415.407 137.722C414.753 137.818 414.093 137.894 413.427 137.952V137.95L413.425 137.936C414.09 137.872 414.749 137.788 415.401 137.682L415.406 137.712ZM29.7204 136.79C30.3537 136.98 30.9953 137.148 31.6442 137.298L31.6325 137.355L31.6266 137.379C30.972 137.244 30.3247 137.088 29.6843 136.917L29.696 136.879L29.7204 136.79ZM419.279 136.79L419.304 136.879L419.315 136.917C418.675 137.088 418.027 137.244 417.373 137.379L417.368 137.355L417.355 137.298C418.004 137.148 418.646 136.98 419.279 136.79ZM26.0007 135.407C26.6033 135.676 27.2155 135.926 27.8366 136.157L27.7927 136.287L27.7722 136.344C27.1381 136.134 26.5121 135.906 25.8952 135.66L25.9294 135.58L26.0007 135.407ZM423.071 135.58L423.104 135.66C422.487 135.906 421.861 136.134 421.227 136.344L421.208 136.287L421.163 136.157C421.784 135.926 422.396 135.676 422.999 135.407L423.071 135.58ZM22.4968 133.566C23.0599 133.909 23.6338 134.235 24.2184 134.542L24.112 134.76L24.0612 134.863C23.4554 134.579 22.8579 134.28 22.2722 133.963L22.3474 133.832L22.4968 133.566ZM426.503 133.566L426.653 133.832L426.726 133.963C426.141 134.28 425.544 134.579 424.938 134.863L424.888 134.76L424.781 134.542C425.366 134.235 425.939 133.909 426.503 133.566ZM19.2634 131.31C19.7781 131.719 20.3037 132.113 20.8425 132.489L20.6423 132.799L20.5417 132.954C19.9726 132.6 19.414 132.232 18.8679 131.846L19.0026 131.666L19.2634 131.31ZM429.998 131.666L430.131 131.846C429.585 132.232 429.027 132.6 428.458 132.954L428.358 132.799L428.157 132.489C428.696 132.113 429.221 131.72 429.736 131.311L429.998 131.666ZM433.058 129.112L433.268 129.336L433.273 129.34C432.774 129.788 432.262 130.222 431.737 130.64L431.566 130.434L431.24 130.044C431.726 129.607 432.198 129.153 432.658 128.687L433.058 129.112ZM16.3405 128.687C16.8005 129.154 17.273 129.607 17.7595 130.044L17.4343 130.434L17.2614 130.639C16.7369 130.221 16.225 129.788 15.7263 129.34L15.9421 129.112L16.3405 128.687ZM13.7673 125.745C14.1669 126.261 14.5793 126.765 15.0075 127.255L14.5329 127.703L14.2673 127.952C13.7938 127.474 13.3342 126.982 12.8893 126.477L13.2097 126.211L13.3727 126.075L13.7673 125.745ZM435.329 125.826H435.33L435.79 126.211L436.11 126.477C435.665 126.982 435.206 127.474 434.732 127.952L434.467 127.703L434.119 127.374L433.992 127.255C434.42 126.765 434.832 126.261 435.232 125.745L435.329 125.826ZM11.5681 122.533C11.9031 123.09 12.2523 123.636 12.6179 124.171L11.9792 124.642L11.5983 124.923C11.1831 124.391 10.7839 123.847 10.4001 123.291L10.8454 123.003L11.3493 122.676L11.5681 122.533ZM438.155 123.003L438.599 123.29C438.215 123.846 437.816 124.391 437.401 124.923L437.02 124.642L436.382 124.171C436.747 123.637 437.096 123.09 437.43 122.534L438.155 123.003ZM9.76727 119.101C10.0344 119.691 10.3158 120.272 10.6149 120.842L10.3337 121.002L10.3347 121.003L9.81219 121.298L9.29559 121.59C8.94481 121.011 8.61236 120.42 8.29559 119.82L8.88446 119.533L9.76727 119.101ZM439.575 119.269H439.576L440.116 119.533L440.655 119.796H440.654L440.704 119.819C440.387 120.42 440.054 121.01 439.703 121.589L439.187 121.298L438.665 121.003V121.002L438.384 120.842C438.684 120.272 438.965 119.691 439.232 119.101L439.575 119.269ZM8.37958 115.499C8.57651 116.114 8.78895 116.721 9.01923 117.319L8.06512 117.715L7.39813 117.992C7.11783 117.374 6.85691 116.745 6.61298 116.108L7.35809 115.852L8.37958 115.499ZM441.074 115.656H441.075L441.642 115.852L442.385 116.108C442.142 116.745 441.882 117.374 441.601 117.992L440.934 117.715L439.979 117.319C440.21 116.721 440.423 116.114 440.62 115.499L441.074 115.656ZM442.123 111.886H442.124L442.711 112.012L443.617 112.205C443.45 112.871 443.265 113.529 443.06 114.178L442.234 113.949L441.155 113.647C441.315 113.029 441.458 112.403 441.584 111.771L442.123 111.886ZM7.41473 111.771C7.54014 112.403 7.6847 113.029 7.84442 113.647L6.76532 113.949L5.93915 114.177C5.73445 113.528 5.54984 112.87 5.38348 112.205L6.28973 112.012L7.41473 111.771ZM6.88251 107.965C6.93601 108.606 7.007 109.243 7.0954 109.874L5.93231 110.05L4.94598 110.199C4.82079 109.528 4.71405 108.851 4.6286 108.168L5.69501 108.072L6.88251 107.965ZM443.305 108.072L444.372 108.168C444.286 108.851 444.179 109.528 444.053 110.199L443.067 110.05L441.904 109.874C441.992 109.243 442.063 108.606 442.117 107.965L443.305 108.072ZM6.77118 105.935C6.77201 105.969 6.77318 106.003 6.77411 106.037C6.7742 106.04 6.77499 106.043 6.77509 106.047L6.1745 106.064L6.17548 106.065L5.57587 106.083L4.43622 106.116C4.39314 105.447 4.36807 104.774 4.36395 104.095H6.76141V105.084L6.77118 105.935ZM444.635 104.095C444.631 104.774 444.607 105.447 444.564 106.116L443.424 106.083L442.824 106.065V106.064L442.224 106.047C442.224 106.043 442.224 106.04 442.224 106.037C442.225 106.003 442.227 105.969 442.228 105.935L442.239 105.084V104.095H444.635ZM6.76141 100.144V102.12H4.36102V100.144H6.76141ZM444.638 100.144V102.12H442.239V100.144H444.638ZM6.76141 96.194V98.1696H4.36102V96.194H6.76141ZM444.638 96.194V98.1696H442.239V96.194H444.638ZM6.76141 92.2428V94.2184H4.36102V92.2428H6.76141ZM444.638 92.2428V94.2184H442.239V92.2428H444.638ZM6.76141 88.2917V90.2672H4.36102V88.2917H6.76141ZM444.638 88.2917V90.2672H442.239V88.2917H444.638ZM6.76141 84.3405V86.3161H4.36102V84.3405H6.76141ZM444.638 84.3405V86.3161H442.239V84.3405H444.638ZM6.76141 80.3893V82.3649H4.36102V80.3893H6.76141ZM444.638 80.3893V82.3649H442.239V80.3893H444.638ZM6.76141 76.4391V78.4137H4.36102V76.4391H6.76141ZM444.638 76.4391V78.4137H442.239V76.4391H444.638ZM6.76141 72.4879V74.4635H4.36102V72.4879H6.76141ZM444.638 72.4879V74.4635H442.239V72.4879H444.638ZM6.76141 68.5368V70.5124H4.36102V68.5368H6.76141ZM444.638 68.5368V70.5124H442.239V68.5368H444.638ZM6.76141 64.5856V66.5612H4.36102V64.5856H6.76141ZM444.638 64.5856V66.5612H442.239V64.5856H444.638ZM6.76141 60.6344V62.61H4.36102V60.6344H6.76141ZM444.638 60.6344V62.61H442.239V60.6344H444.638ZM6.76141 56.6842V58.6588H4.36102V56.6842H6.76141ZM444.638 56.6842V58.6588H442.239V56.6842H444.638ZM6.76141 52.7331V54.7086H4.36102V52.7331H6.76141ZM444.638 52.7331V54.7086H442.239V52.7331H444.638ZM6.76141 48.7819V50.7575H4.36102V48.7819H6.76141ZM444.638 48.7819V50.7575H442.239V48.7819H444.638ZM6.76141 44.8307V46.8063H4.36102V44.8307H6.76141ZM444.638 44.8307V46.8063H442.239V44.8307H444.638ZM6.76141 40.8795V42.8551H4.36102V40.8795H6.76141ZM444.638 40.8795V42.8551H442.239V40.8795H444.638ZM6.76141 38.904H4.36395C4.36809 38.2252 4.39308 37.5513 4.43622 36.8825L5.57587 36.9176L6.77509 36.9528C6.76624 37.273 6.76141 37.5943 6.76141 37.9167V38.904ZM444.564 36.8825C444.607 37.5513 444.631 38.2252 444.635 38.904H442.239V37.9167C442.239 37.5942 442.232 37.273 442.223 36.9528L443.424 36.9176L444.564 36.8825ZM4.94598 32.8004L5.93231 32.9499L7.0954 33.1247C7.00692 33.7558 6.93605 34.3926 6.88251 35.0348L5.69501 34.9284L4.6286 34.8317C4.71406 34.148 4.82078 33.4709 4.94598 32.8004ZM444.053 32.8004C444.179 33.471 444.286 34.148 444.372 34.8317L443.305 34.9284L442.117 35.0348C442.063 34.3926 441.992 33.7558 441.904 33.1247L443.067 32.9499L444.053 32.8004ZM6.18622 28.8903H6.18719L6.76532 29.0514L7.84442 29.3512C7.68459 29.97 7.54022 30.5956 7.41473 31.2282L6.28973 30.9879L5.70282 30.8629V30.862L5.38348 30.7936C5.5498 30.1285 5.73453 29.471 5.93915 28.8219L6.18622 28.8903ZM443.06 28.821C443.265 29.4703 443.45 30.1281 443.617 30.7936L443.296 30.862L443.297 30.8629L442.711 30.9879L441.584 31.2282C441.458 30.5957 441.315 29.97 441.155 29.3512L442.234 29.0514L443.06 28.821ZM7.51044 25.0544H7.51141L8.06512 25.2848L8.61981 25.5143H8.61884L9.01923 25.6803C8.78894 26.2785 8.57652 26.8858 8.37958 27.5006L7.35809 27.1481L6.79071 26.9528V26.9518L6.61298 26.8903C6.85683 26.2535 7.11795 25.6253 7.39813 25.0075L7.51044 25.0544ZM441.601 25.0075C441.881 25.6252 442.142 26.2536 442.385 26.8903L442.208 26.9518L442.209 26.9528L441.642 27.1481L440.62 27.5006C440.423 26.8857 440.21 26.2786 439.979 25.6803L440.934 25.2848L441.601 25.0075ZM9.81219 21.7028L10.6149 22.1559C10.3155 22.7264 10.0336 23.3079 9.7663 23.8981L8.88446 23.4674L8.29559 23.1794C8.61237 22.579 8.94481 21.9884 9.29559 21.4098L9.81219 21.7028ZM439.703 21.4098C440.054 21.9887 440.387 22.5796 440.704 23.1803L440.116 23.4674L439.232 23.8981C438.965 23.308 438.684 22.7263 438.384 22.1559L439.187 21.7028L439.703 21.4098ZM11.9792 18.3581L12.4626 18.7135H12.4616L12.6179 18.8288C12.2525 19.3626 11.903 19.9088 11.5681 20.4655L10.8454 19.9977L10.3991 19.7086C10.7832 19.1523 11.1828 18.6076 11.5983 18.0758L11.9792 18.3581ZM437.401 18.0758C437.816 18.6075 438.215 19.1525 438.599 19.7086L438.155 19.9977L437.431 20.4655C437.096 19.9085 436.747 19.3618 436.382 18.8278L437.02 18.3581L437.401 18.0758ZM14.5329 15.2975L15.0075 15.7448C14.5793 16.2344 14.1669 16.7388 13.7673 17.2545L13.2097 16.7897L12.8893 16.5221C13.334 16.0173 13.7929 15.5253 14.2663 15.0475L14.5329 15.2975ZM434.732 15.0465C435.206 15.5244 435.665 16.0161 436.11 16.5211L435.79 16.7897L435.232 17.2536C434.833 16.738 434.42 16.2342 433.992 15.7448L434.467 15.2975L434.732 15.0465ZM431.737 12.359C432.262 12.7774 432.774 13.2109 433.273 13.6588L433.058 13.8883L432.658 14.3122C432.198 13.8458 431.726 13.3917 431.24 12.9547L431.566 12.5651L431.737 12.359ZM17.4343 12.5651L17.7595 12.9547C17.273 13.3917 16.8005 13.8448 16.3405 14.3112L15.9421 13.8883L15.7263 13.6588C16.2251 13.2111 16.7367 12.7773 17.2614 12.359L17.4343 12.5651ZM20.6423 10.2008L20.8425 10.5104C20.3036 10.8863 19.7772 11.2796 19.2624 11.6881L19.0026 11.3346L18.8679 11.153C19.414 10.7677 19.9726 10.3991 20.5417 10.0456L20.6423 10.2008ZM428.458 10.0456C429.027 10.3989 429.585 10.7678 430.131 11.153L429.998 11.3346L429.737 11.6881C429.222 11.2796 428.696 10.8863 428.157 10.5104L428.358 10.2008L428.458 10.0456ZM424.938 8.13541C425.544 8.41936 426.141 8.71898 426.726 9.03677L426.653 9.16763L426.503 9.43326C425.939 9.09048 425.366 8.76479 424.781 8.45767L424.888 8.2399L424.938 8.13541ZM24.112 8.2399L24.2184 8.45767C23.634 8.76472 23.0598 9.08959 22.4968 9.43228L22.3474 9.16763L22.2731 9.03677C22.8588 8.71897 23.4555 8.41937 24.0612 8.13541L24.112 8.2399ZM27.7927 6.71353L27.8366 6.84146C27.2154 7.07238 26.6033 7.32325 26.0007 7.59244L25.9294 7.42056L25.8952 7.33951C26.5121 7.09339 27.1381 6.86556 27.7722 6.65494L27.7927 6.71353ZM421.227 6.65494C421.861 6.86555 422.487 7.0934 423.104 7.33951L423.071 7.42056L422.999 7.59244C422.396 7.32326 421.784 7.07237 421.163 6.84146L421.208 6.71353L421.227 6.65494ZM31.6325 5.64517L31.6442 5.70084C30.9953 5.85022 30.3538 6.01978 29.7204 6.20963L29.696 6.12076L29.6852 6.08267C30.3254 5.91109 30.9722 5.75456 31.6266 5.61978L31.6325 5.64517ZM417.373 5.61978C418.027 5.75455 418.674 5.9111 419.314 6.08267L419.304 6.12076L419.279 6.20963C418.646 6.01979 418.004 5.85021 417.355 5.70084L417.368 5.64517L417.373 5.61978ZM35.5729 5.05045L35.5739 5.06216C34.9092 5.12643 34.2505 5.21098 33.5983 5.31705L33.5944 5.28775L33.5925 5.27701C34.2465 5.18181 34.9065 5.10514 35.572 5.04752L35.5729 5.05045ZM413.427 5.04752C414.093 5.10513 414.753 5.18182 415.407 5.27701L415.406 5.28775L415.401 5.31705C414.749 5.211 414.09 5.12642 413.425 5.06216L413.427 5.05045V5.04752ZM37.7409 4.9274C37.6813 4.92897 37.6217 4.93233 37.5622 4.93423V4.9313C37.894 4.92179 38.2271 4.91666 38.5612 4.91666L37.7409 4.9274ZM411.322 4.9274C411.36 4.92837 411.399 4.9302 411.437 4.9313V4.93423C411.106 4.92363 410.773 4.91666 410.439 4.91666L411.322 4.9274Z" fill="#33F498" fill-opacity="0.75" mask="url(#path-4-inside-2_828_2068)"/>
<mask id="path-6-inside-3_828_2068" fill="white">
<path d="M11.6429 35.8334C11.6429 20.9217 23.7312 8.83334 38.6429 8.83334H410.357C425.269 8.83334 437.357 20.9217 437.357 35.8333V107.167C437.357 122.078 425.269 134.167 410.357 134.167H38.6429C23.7312 134.167 11.6429 122.078 11.6429 107.167V35.8334Z"/>
</mask>
<path d="M37.677 134.145C37.9975 134.158 38.3194 134.166 38.6429 134.166C38.3196 134.166 37.9977 134.158 37.677 134.148V134.145ZM411.322 134.148C411.001 134.158 410.68 134.166 410.357 134.166C410.68 134.166 411.002 134.157 411.322 134.145V134.148ZM33.8548 133.69C34.4811 133.816 35.1155 133.917 35.7571 133.993L35.7552 134.014L35.7542 134.022C35.1101 133.957 34.4727 133.869 33.8421 133.762L33.846 133.742L33.8548 133.69ZM415.154 133.742L415.157 133.762C414.526 133.869 413.888 133.957 413.244 134.022V134.014L413.241 133.993C413.883 133.917 414.517 133.816 415.144 133.69L415.154 133.742ZM30.1643 132.636C30.7622 132.859 31.3702 133.059 31.9876 133.236L31.9632 133.334L31.9524 133.374C31.3233 133.223 30.7022 133.052 30.0901 132.86L30.1136 132.791L30.1604 132.651L30.1643 132.636ZM418.887 132.791L418.909 132.86C418.297 133.052 417.676 133.223 417.046 133.374L417.036 133.334L417.011 133.236C417.629 133.059 418.237 132.859 418.835 132.636L418.887 132.791ZM26.6995 131.026C27.2541 131.338 27.8208 131.628 28.3987 131.897L28.3079 132.118L28.2659 132.217C27.6626 131.981 27.0701 131.724 26.4876 131.449L26.555 131.316L26.6956 131.035L26.6995 131.026ZM422.446 131.316L422.512 131.449C421.93 131.724 421.337 131.981 420.734 132.217L420.693 132.118L420.601 131.897C421.179 131.628 421.746 131.338 422.3 131.026L422.446 131.316ZM23.5393 128.921C24.0385 129.31 24.5514 129.681 25.0774 130.032L24.8636 130.391L24.762 130.561C24.195 130.244 23.6393 129.91 23.097 129.556L23.2434 129.347L23.5393 128.921ZM425.757 129.347L425.902 129.555C425.359 129.909 424.804 130.244 424.237 130.561L424.136 130.391L423.922 130.032C424.448 129.681 424.961 129.31 425.46 128.921L425.757 129.347ZM20.7415 126.393C21.1765 126.847 21.6273 127.284 22.0921 127.704L21.7005 128.191L21.5013 128.437C20.9807 128.044 20.4736 127.635 19.9817 127.208L20.2444 126.928L20.7415 126.393ZM428.755 126.928L429.017 127.208C428.525 127.635 428.018 128.044 427.497 128.437L427.299 128.191L426.992 127.811L426.908 127.705C427.372 127.285 427.822 126.847 428.257 126.393L428.755 126.928ZM18.3509 123.517C18.7155 124.024 19.0956 124.517 19.4925 124.994L19.429 125.053L19.43 125.054L18.8811 125.565L18.5471 125.875C18.0829 125.414 17.6352 124.935 17.2034 124.443L17.6184 124.109L18.3509 123.517ZM430.649 123.517L431.381 124.109L431.795 124.443C431.363 124.935 430.916 125.414 430.451 125.875L430.118 125.565L429.57 125.054V125.053L429.506 124.994C429.903 124.517 430.284 124.024 430.649 123.517ZM16.3938 120.365C16.6842 120.912 16.9921 121.448 17.3167 121.971L16.4622 122.567L15.9573 122.917C15.5584 122.393 15.1773 121.855 14.8147 121.304L15.4182 120.946L16.3938 120.365ZM433.581 120.946L434.185 121.304C433.822 121.855 433.441 122.393 433.042 122.917L432.537 122.567L431.682 121.972C432.007 121.448 432.315 120.913 432.606 120.365L433.581 120.946ZM14.8889 117.004C15.1025 117.582 15.3349 118.15 15.5843 118.707L14.4934 119.255L13.8235 119.591L13.8225 119.59L13.7835 119.611C13.4588 119.033 13.1531 118.444 12.8684 117.842L13.6917 117.502L14.8889 117.004ZM434.615 117.214H434.616L435.308 117.502L436.001 117.789H436L436.13 117.843C435.846 118.444 435.541 119.034 435.216 119.611L434.506 119.255L433.415 118.707C433.665 118.15 433.896 117.582 434.11 117.004L434.615 117.214ZM13.8489 113.495C13.9846 114.094 14.1382 114.684 14.3108 115.266L13.0179 115.697L12.0784 116.009C11.8365 115.388 11.616 114.757 11.4173 114.116L11.7483 114.031L12.4759 113.846L13.8489 113.495ZM436.525 113.846L437.251 114.031H437.25L437.583 114.116C437.385 114.757 437.162 115.387 436.92 116.008L435.982 115.697L434.688 115.266C434.86 114.684 435.014 114.094 435.15 113.495L436.525 113.846ZM13.2718 109.897C13.3295 110.506 13.4078 111.109 13.5032 111.705L12.0677 111.963L10.8899 112.174C10.7375 111.521 10.609 110.86 10.5022 110.191L11.7952 110.054L13.2718 109.897ZM436.458 109.975H436.459L437.204 110.054L438.497 110.191C438.391 110.86 438.262 111.521 438.11 112.174L436.932 111.963L435.496 111.705C435.592 111.109 435.67 110.506 435.728 109.897L436.458 109.975ZM13.1429 107.166C13.1429 107.367 13.1451 107.567 13.1497 107.766C13.1513 107.843 13.1533 107.92 13.1555 107.997C13.1564 108.025 13.1575 108.052 13.1585 108.079L11.6595 108.132L10.2552 108.181C10.1973 107.519 10.1615 106.85 10.1497 106.176H13.1429V107.166ZM438.851 106.176C438.839 106.85 438.802 107.519 438.744 108.181L437.34 108.132L435.841 108.079C435.841 108.076 435.841 108.073 435.841 108.07C435.845 107.949 435.848 107.829 435.85 107.708C435.854 107.528 435.857 107.347 435.857 107.166V106.176H438.851ZM13.1429 102.213V104.195H10.1429V102.213H13.1429ZM438.857 102.213V104.195H435.857V102.213H438.857ZM13.1429 98.2503V100.232H10.1429V98.2503H13.1429ZM438.857 98.2503V100.232H435.857V98.2503H438.857ZM13.1429 94.2874V96.2689H10.1429V94.2874H13.1429ZM438.857 94.2874V96.2689H435.857V94.2874H438.857ZM13.1429 90.3246V92.306H10.1429V90.3246H13.1429ZM438.857 90.3236V92.306H435.857V90.3236H438.857ZM13.1429 86.3607V88.3421H10.1429V86.3607H13.1429ZM438.857 86.3607V88.3421H435.857V86.3607H438.857ZM13.1429 82.3978V84.3792H10.1429V82.3978H13.1429ZM438.857 82.3978V84.3792H435.857V82.3978H438.857ZM13.1429 78.4349V80.4164H10.1429V78.4349H13.1429ZM438.857 78.4349V80.4164H435.857V78.4349H438.857ZM13.1429 74.472V76.4535H10.1429V74.472H13.1429ZM438.857 74.472V76.4535H435.857V74.472H438.857ZM13.1429 70.5091V72.4906H10.1429V70.5091H13.1429ZM438.857 70.5091V72.4906H435.857V70.5091H438.857ZM13.1429 66.5462V68.5277H10.1429V66.5462H13.1429ZM438.857 66.5462V68.5277H435.857V66.5462H438.857ZM13.1429 62.5833V64.5648H10.1429V62.5833H13.1429ZM438.857 62.5833V64.5648H435.857V62.5833H438.857ZM13.1429 58.6205V60.6019H10.1429V58.6205H13.1429ZM438.857 58.6205V60.6019H435.857V58.6205H438.857ZM13.1429 54.6576V56.639H10.1429V54.6576H13.1429ZM438.857 54.6576V56.639H435.857V54.6576H438.857ZM13.1429 50.6947V52.6761H10.1429V50.6947H13.1429ZM438.857 50.6947V52.6761H435.857V50.6947H438.857ZM13.1429 46.7318V48.7132H10.1429V46.7318H13.1429ZM438.857 46.7318V48.7132H435.857V46.7318H438.857ZM13.1429 42.7689V44.7503H10.1429V42.7689H13.1429ZM438.857 42.7689V44.7503H435.857V42.7689H438.857ZM13.1429 38.806V40.7874H10.1429V38.806H13.1429ZM438.857 38.806V40.7874H435.857V38.806H438.857ZM13.1429 36.8246H10.1497C10.1615 36.1496 10.1972 35.4805 10.2552 34.8177L11.6595 34.8675L12.4095 34.8939H12.4085L13.1585 34.9203C13.1575 34.9468 13.1564 34.9737 13.1555 35.0003C13.1533 35.0781 13.1513 35.1558 13.1497 35.2337C13.1451 35.433 13.1429 35.6329 13.1429 35.8333V36.8246ZM438.744 34.8177C438.802 35.4805 438.839 36.1495 438.851 36.8246H435.857V35.8333C435.857 35.6525 435.854 35.4722 435.85 35.2923C435.848 35.1681 435.844 35.0441 435.84 34.9203L437.34 34.8675L438.744 34.8177ZM12.0677 31.0365L13.5032 31.2943C13.4078 31.8908 13.3295 32.4937 13.2718 33.1029L12.5413 33.0247V33.0257L11.7952 32.9456L10.5022 32.808C10.609 32.1388 10.7374 31.4773 10.8899 30.8246L12.0677 31.0365ZM438.11 30.8246C438.262 31.4773 438.391 32.1388 438.497 32.808L437.204 32.9456L436.459 33.0257L436.458 33.0247L435.728 33.1029C435.67 32.4937 435.592 31.8908 435.496 31.2943L436.932 31.0365L438.11 30.8246ZM12.305 27.0667H12.3059L13.0179 27.304L13.72 27.5374L14.3108 27.7328C14.1382 28.3146 13.9846 28.9052 13.8489 29.5033L13.2024 29.3382V29.3392L12.4759 29.1537L11.7483 28.9691V28.9681L11.4173 28.8841C11.616 28.2431 11.8356 27.6114 12.0774 26.9906L12.305 27.0667ZM436.921 26.9906C437.163 27.6115 437.384 28.243 437.582 28.8841L436.525 29.1537L435.798 29.3392L435.797 29.3382L435.15 29.5033C435.014 28.9051 434.86 28.3146 434.688 27.7328L435.982 27.304L436.921 26.9906ZM13.8225 23.4085H13.8235L14.4934 23.7455L15.5843 24.2923C15.335 24.8496 15.1025 25.417 14.8889 25.9945L13.6917 25.4984L12.9993 25.2113V25.2103L12.8694 25.1566C13.1539 24.5555 13.4591 23.9661 13.7835 23.389L13.8225 23.4085ZM435.216 23.388C435.541 23.9654 435.846 24.5552 436.13 25.1566L435.308 25.4984L434.11 25.9945C433.896 25.4168 433.665 24.8488 433.415 24.2914L434.506 23.7455L435.216 23.388ZM16.4622 20.4339L17.0784 20.8617H17.0774L17.3167 21.0277C16.9921 21.5508 16.6842 22.0865 16.3938 22.6341L15.4182 22.054L14.8147 21.6956C15.1773 21.1442 15.5584 20.6062 15.9573 20.0824L16.4622 20.4339ZM433.042 20.0814C433.441 20.6052 433.822 21.1433 434.185 21.6947L433.581 22.054L432.937 22.4378L432.936 22.4369L432.606 22.6341C432.315 22.0865 432.008 21.5508 431.683 21.0277L432.537 20.4339L432.868 20.2035L433.042 20.0814ZM18.8811 17.4349L19.4925 18.0042C19.0956 18.4818 18.7155 18.9752 18.3509 19.4818L18.2024 19.3617V19.3626L17.6184 18.891L17.2034 18.556C17.6352 18.0634 18.0838 17.5861 18.5481 17.1244L18.8811 17.4349ZM430.451 17.1234C430.916 17.5851 431.363 18.0634 431.795 18.556L431.381 18.891L430.993 19.2044L430.649 19.4818C430.284 18.975 429.903 18.482 429.506 18.0042L430.118 17.4349L430.451 17.1234ZM21.7005 14.8089L21.8333 14.974L22.0921 15.2943C21.6273 15.7146 21.1765 16.1517 20.7415 16.6058L20.2444 16.0716L19.9827 15.7904C20.4745 15.364 20.9818 14.9552 21.5022 14.5628L21.7005 14.8089ZM427.497 14.5628C428.018 14.9551 428.524 15.3642 429.016 15.7904L428.755 16.0716L428.3 16.5609L428.257 16.6058C427.822 16.1519 427.372 15.7144 426.908 15.2943L427.299 14.8089L427.497 14.5628ZM24.8636 12.6087L25.0774 12.9681C24.5514 13.3187 24.0385 13.6893 23.5393 14.0785L23.2434 13.6527L23.0979 13.4437C23.6401 13.0902 24.1951 12.7546 24.762 12.4378L24.8636 12.6087ZM424.237 12.4378C424.804 12.7547 425.359 13.09 425.902 13.4437L425.757 13.6527L425.46 14.0785C424.961 13.6891 424.447 13.3189 423.921 12.9681L424.136 12.6087L424.237 12.4378ZM420.734 10.7816C421.337 11.0175 421.93 11.2751 422.512 11.5501L422.446 11.6839L422.3 11.974C421.745 11.662 421.179 11.3707 420.601 11.1019L420.693 10.8822L420.734 10.7816ZM28.3079 10.8822L28.3987 11.1019C27.8208 11.3707 27.254 11.6612 26.6995 11.973L26.555 11.6839L26.4876 11.5501C27.0701 11.2751 27.6626 11.0175 28.2659 10.7816L28.3079 10.8822ZM31.9632 9.66635L31.9876 9.76401C31.3702 9.94028 30.7622 10.1405 30.1643 10.3636L30.1136 10.2083L30.0901 10.139C30.7022 9.94671 31.3234 9.7757 31.9524 9.62436L31.9632 9.66635ZM417.046 9.62436C417.676 9.77575 418.297 9.94662 418.909 10.139L418.887 10.2083L418.834 10.3636C418.236 10.1405 417.629 9.93929 417.011 9.76303L417.036 9.66635L417.046 9.62436ZM35.7552 8.98569L35.7571 9.0062C35.1155 9.08272 34.4811 9.18391 33.8548 9.30991L33.846 9.25815L33.8421 9.23764C34.4727 9.13065 35.1101 9.0427 35.7542 8.97787L35.7552 8.98569ZM413.244 8.97787C413.888 9.04267 414.526 9.13068 415.157 9.23764L415.154 9.25815L415.144 9.30991C414.517 9.18395 413.883 9.08269 413.241 9.0062L413.244 8.98569V8.97787ZM38.6429 8.83334C38.3195 8.83334 37.9975 8.84121 37.677 8.85385V8.85092C37.9977 8.84024 38.3196 8.83334 38.6429 8.83334ZM411.093 8.84311C411.169 8.84504 411.245 8.84839 411.322 8.85092V8.85385C411.219 8.84983 411.117 8.84488 411.015 8.84213L411.093 8.84311Z" fill="#33F498" mask="url(#path-6-inside-3_828_2068)"/>
<mask id="path-8-inside-4_828_2068" fill="white">
<path d="M17.7245 33.75C17.7245 22.152 27.1265 12.75 38.7245 12.75H411.796C423.394 12.75 432.796 22.152 432.796 33.75V109.25C432.796 120.848 423.394 130.25 411.796 130.25H38.7245C27.1265 130.25 17.7245 120.848 17.7245 109.25V33.75Z"/>
</mask>
<path d="M37.6932 130.219C38.0347 130.239 38.3785 130.25 38.7245 130.25C38.3789 130.25 38.0351 130.24 37.6932 130.225V130.219ZM412.826 130.225C412.485 130.24 412.141 130.25 411.796 130.25C412.141 130.25 412.485 130.239 412.826 130.219V130.225ZM33.6522 129.491C34.3046 129.69 34.9708 129.853 35.6493 129.975L35.6425 130.025L35.6395 130.043C34.9517 129.951 34.2735 129.829 33.6063 129.678L33.62 129.625L33.6522 129.491ZM416.9 129.625L416.913 129.678C416.246 129.829 415.568 129.951 414.881 130.043L414.879 130.025L414.871 129.974C415.549 129.852 416.215 129.69 416.867 129.491L416.9 129.625ZM29.9208 127.862C30.5081 128.202 31.1128 128.51 31.7343 128.782L31.6473 129.027L31.6112 129.127C30.9497 128.912 30.3015 128.668 29.6678 128.396L29.744 128.238L29.9208 127.862ZM420.776 128.238L420.851 128.396C420.218 128.668 419.57 128.912 418.908 129.127L418.873 129.027L418.785 128.782C419.406 128.51 420.011 128.203 420.599 127.863L420.776 128.238ZM26.6796 125.491C27.1762 125.942 27.6945 126.364 28.2313 126.758L27.9266 127.266L27.7919 127.489C27.1763 127.156 26.578 126.795 25.9979 126.409L26.2147 126.118L26.6796 125.491ZM424.307 126.118L424.522 126.409C423.942 126.795 423.343 127.156 422.727 127.489L422.594 127.266L422.288 126.758C422.825 126.364 423.343 125.942 423.84 125.491L424.307 126.118ZM24.0311 122.564C24.4243 123.094 24.8407 123.602 25.2782 124.086L24.6219 124.811L24.3007 125.164C23.7502 124.72 23.2208 124.252 22.7137 123.76L23.1639 123.353L24.0311 122.564ZM427.356 123.353L427.807 123.761C427.299 124.253 426.769 124.72 426.219 125.164L425.898 124.811L425.242 124.087C425.68 123.603 426.095 123.094 426.488 122.564L427.356 123.353ZM22.0175 119.261C22.3028 119.841 22.6133 120.404 22.9452 120.95L22.6581 121.163L22.6591 121.164L21.8563 121.76L21.2528 122.207C20.7873 121.664 20.3464 121.099 19.9325 120.514L20.87 119.951L22.0175 119.261ZM428.953 119.532H428.954L429.811 120.048L430.587 120.514C430.173 121.099 429.732 121.664 429.266 122.207L428.665 121.76L427.862 121.164V121.163L427.574 120.95C427.906 120.404 428.216 119.841 428.502 119.261L428.953 119.532ZM20.6444 115.719C20.823 116.329 21.0253 116.927 21.2518 117.512L20.6385 117.802L20.6395 117.803L19.7362 118.23L18.8329 118.659L18.8319 118.658L18.7665 118.689C18.405 118.06 18.0732 117.412 17.7714 116.747L18.9471 116.327L20.6444 115.719ZM431.574 116.327L432.749 116.747C432.447 117.412 432.114 118.06 431.753 118.689L431.688 118.658V118.659L430.784 118.23L429.881 117.803V117.802L429.267 117.512C429.494 116.927 429.696 116.329 429.875 115.719L431.574 116.327ZM19.8915 112.046C19.9668 112.671 20.0674 113.288 20.1913 113.895L18.3495 114.354L16.9589 114.701C16.7205 114.005 16.5162 113.293 16.3446 112.568L16.9608 112.478H16.9598L18.9384 112.187L19.8915 112.046ZM431.582 112.187L433.56 112.478H433.559L434.176 112.568C434.004 113.293 433.8 114.005 433.561 114.701L432.171 114.354L430.328 113.894C430.452 113.287 430.553 112.671 430.628 112.046L431.582 112.187ZM19.7245 109.25C19.7245 109.563 19.7308 109.875 19.743 110.185L17.7489 110.281L15.9354 110.367C15.8414 109.673 15.7786 108.969 15.7479 108.257H19.7245V109.25ZM434.773 108.257C434.743 108.969 434.679 109.673 434.585 110.367L432.771 110.281L430.776 110.185C430.781 110.054 430.787 109.923 430.79 109.792L430.796 109.25V108.257H434.773ZM19.7245 104.283V106.27H15.7245V104.283H19.7245ZM434.796 104.283V106.27H430.796V104.283H434.796ZM19.7245 100.31V102.296H15.7245V100.31H19.7245ZM434.796 100.31V102.296H430.796V100.31H434.796ZM19.7245 96.3359V98.3223H15.7245V96.3359H19.7245ZM434.796 96.3359V98.3223H430.796V96.3359H434.796ZM19.7245 92.3623V94.3486H15.7245V92.3623H19.7245ZM434.796 92.3623V94.3486H430.796V92.3623H434.796ZM19.7245 88.3877V90.375H15.7245V88.3877H19.7245ZM434.796 88.3877V90.375H430.796V88.3877H434.796ZM19.7245 84.4141V86.4014H15.7245V84.4141H19.7245ZM434.796 84.4141V86.4014H430.796V84.4141H434.796ZM19.7245 80.4404V82.4277H15.7245V80.4404H19.7245ZM434.796 80.4404V82.4277H430.796V80.4404H434.796ZM19.7245 76.4668V78.4541H15.7245V76.4668H19.7245ZM434.796 76.4668V78.4541H430.796V76.4668H434.796ZM19.7245 72.4932V74.4805H15.7245V72.4932H19.7245ZM434.796 72.4932V74.4805H430.796V72.4932H434.796ZM19.7245 68.5195V70.5068H15.7245V68.5195H19.7245ZM434.796 68.5195V70.5068H430.796V68.5195H434.796ZM19.7245 64.5459V66.5332H15.7245V64.5459H19.7245ZM434.796 64.5459V66.5332H430.796V64.5459H434.796ZM19.7245 60.5723V62.5596H15.7245V60.5723H19.7245ZM434.796 60.5723V62.5596H430.796V60.5723H434.796ZM19.7245 56.5986V58.5859H15.7245V56.5986H19.7245ZM434.796 56.5986V58.5859H430.796V56.5986H434.796ZM19.7245 52.625V54.6123H15.7245V52.625H19.7245ZM434.796 52.625V54.6123H430.796V52.625H434.796ZM19.7245 48.6514V50.6377H15.7245V48.6514H19.7245ZM434.796 48.6514V50.6377H430.796V48.6514H434.796ZM19.7245 44.6777V46.6641H15.7245V44.6777H19.7245ZM434.796 44.6777V46.6641H430.796V44.6777H434.796ZM19.7245 40.7041V42.6904H15.7245V40.7041H19.7245ZM434.796 40.7041V42.6904H430.796V40.7041H434.796ZM19.7245 36.7305V38.7168H15.7245V36.7305H19.7245ZM434.796 36.7305V38.7168H430.796V36.7305H434.796ZM19.7245 34.7432H15.7479C15.7786 34.0305 15.8413 33.3263 15.9354 32.6318L17.7489 32.7188L19.743 32.8145C19.7307 33.1246 19.7245 33.4365 19.7245 33.75V34.7432ZM434.585 32.6318C434.679 33.3263 434.743 34.0304 434.773 34.7432H430.796V33.75C430.796 33.4365 430.789 33.1246 430.776 32.8145L432.771 32.7188L434.585 32.6318ZM18.3495 28.6455L20.1913 29.1045C20.0673 29.7112 19.9668 30.3278 19.8915 30.9531L17.9491 30.668L16.9598 30.5225L16.9608 30.5215L16.3446 30.4307C16.5162 29.706 16.7205 28.9942 16.9589 28.2979L18.3495 28.6455ZM433.561 28.2979C433.8 28.9942 434.004 29.706 434.176 30.4307L432.571 30.668L430.628 30.9531C430.552 30.3277 430.452 29.7112 430.328 29.1045L432.171 28.6455L433.561 28.2979ZM18.8319 24.3408H18.8329L19.7362 24.7695L20.6395 25.1973H20.6385L21.2518 25.4873C21.0253 26.0717 20.823 26.67 20.6444 27.2803L18.9471 26.6729L18.0048 26.3359V26.335L17.7714 26.252C18.0732 25.5871 18.405 24.9388 18.7665 24.3096L18.8319 24.3408ZM431.753 24.3096C432.114 24.9389 432.447 25.587 432.749 26.252L431.574 26.6729L429.875 27.2803C429.696 26.67 429.494 26.0717 429.267 25.4873L430.784 24.7695L431.753 24.3096ZM21.8563 21.2402L22.6591 21.8359H22.6581L22.9452 22.0488C22.6133 22.5946 22.3028 23.1579 22.0175 23.7383L21.5663 23.4668V23.4678L20.7089 22.9521L20.6063 22.8906L19.9325 22.4854C20.3464 21.9 20.7873 21.3352 21.2528 20.792L21.8563 21.2402ZM429.266 20.792C429.732 21.3352 430.173 21.9 430.587 22.4854L429.811 22.9521L428.954 23.4678L428.953 23.4668L428.502 23.7383C428.216 23.1578 427.906 22.5946 427.574 22.0488L428.665 21.2402L429.266 20.792ZM24.6219 18.1895L25.2782 18.9131C24.8407 19.3974 24.4244 19.9051 24.0311 20.4346L23.1639 19.6475L22.7137 19.2393C23.2208 18.7475 23.7502 18.2787 24.3007 17.835L24.6219 18.1895ZM426.219 17.835C426.769 18.2787 427.299 18.7465 427.807 19.2383L427.356 19.6475L426.488 20.4346C426.095 19.9051 425.68 19.3965 425.242 18.9121L425.898 18.1895L426.219 17.835ZM27.9266 15.7344L28.2313 16.2412C27.6945 16.635 27.1762 17.0574 26.6796 17.5078L26.2147 16.8818L25.9979 16.5898C26.578 16.2038 27.1763 15.8429 27.7919 15.5098L27.9266 15.7344ZM422.727 15.5098C423.343 15.8431 423.942 16.2036 424.522 16.5898L424.307 16.8818L423.84 17.5078C423.343 17.0574 422.825 16.635 422.288 16.2412L422.594 15.7344L422.727 15.5098ZM31.6473 13.9727L31.7343 14.2168C31.1128 14.4887 30.508 14.7967 29.9208 15.1367L29.744 14.7617L29.6678 14.6025C30.3015 14.3308 30.9498 14.087 31.6112 13.8721L31.6473 13.9727ZM418.908 13.8721C419.57 14.087 420.218 14.3309 420.851 14.6025L420.776 14.7617L420.599 15.1357C420.011 14.7958 419.406 14.4886 418.785 14.2168L418.873 13.9727L418.908 13.8721ZM35.6425 12.9746L35.6493 13.0244C34.9708 13.1465 34.3046 13.3086 33.6522 13.5078L33.62 13.375L33.6063 13.3213C34.2734 13.1697 34.9518 13.0483 35.6395 12.9561L35.6425 12.9746ZM414.881 12.9561C415.568 13.0482 416.246 13.1698 416.913 13.3213L416.9 13.375L416.867 13.5078C416.215 13.3087 415.549 13.1474 414.871 13.0254L414.879 12.9746L414.881 12.9561ZM38.7245 12.75C38.3785 12.75 38.0347 12.7601 37.6932 12.7803V12.7744C38.0351 12.7593 38.3789 12.75 38.7245 12.75ZM412.39 12.7578C412.535 12.7615 412.681 12.768 412.826 12.7744V12.7803C412.647 12.7697 412.467 12.7619 412.286 12.7568L412.39 12.7578Z" fill="#33F498" mask="url(#path-8-inside-4_828_2068)"/>
</g>
</svg>
