<svg width="66" height="144" viewBox="0 0 66 144" fill="none" xmlns="http://www.w3.org/2000/svg">
<mask id="mask0_828_2191" style="mask-type:alpha" maskUnits="userSpaceOnUse" x="0" y="0" width="66" height="144">
<rect x="66" y="144" width="66" height="144" transform="rotate(-180 66 144)" fill="#D9D9D9"/>
</mask>
<g mask="url(#mask0_828_2191)">
<mask id="path-2-inside-1_828_2191" fill="white">
<path d="M65 105C65 125.987 47.9868 143 27 143L-344 143C-364.987 143 -382 125.987 -382 105V40C-382 19.0132 -364.987 2 -344 2L27 2C47.9868 2 65 19.0132 65 40V105Z"/>
</mask>
<path d="M27.9981 2.01465C27.6664 2.00563 27.3338 2 27 2C27.334 2 27.667 2.00435 27.999 2.0127H27.9981V2.01465ZM-344.998 2.0127C-344.666 2.00436 -344.334 2 -344 2C-344.333 2 -344.666 2.00565 -344.997 2.01465L-344.998 2.0127ZM31.961 2.3418C31.3072 2.25182 30.6484 2.17749 29.9844 2.12305V2.11523L29.9854 2.1123C30.65 2.16261 31.3099 2.23027 31.9649 2.31348L31.9629 2.32129L31.961 2.3418ZM-348.963 2.32129L-348.964 2.31348C-348.309 2.23029 -347.649 2.1626 -346.984 2.1123V2.11523L-346.983 2.12305C-347.647 2.17746 -348.306 2.25185 -348.96 2.3418L-348.963 2.32129ZM35.8613 3.09961C35.2213 2.93803 34.5746 2.79485 33.9219 2.66797L33.9287 2.62988L33.9317 2.61523C34.5876 2.73291 35.2377 2.86754 35.8819 3.01758L35.875 3.04199L35.8613 3.09961ZM-352.875 3.04199L-352.881 3.01758C-352.237 2.86755 -351.587 2.73289 -350.931 2.61523L-350.929 2.62988L-350.921 2.66797C-351.574 2.79482 -352.22 2.93805 -352.86 3.09961L-352.875 3.04199ZM39.6504 4.28027C39.0324 4.04935 38.4063 3.83621 37.7735 3.63867L37.7969 3.55566L37.8086 3.51855C38.4484 3.70273 39.0812 3.90355 39.707 4.11914L39.6885 4.16992L39.6504 4.28027ZM-356.688 4.16992L-356.706 4.11914C-356.08 3.90356 -355.447 3.70271 -354.808 3.51855L-354.797 3.55566L-354.772 3.63867C-355.405 3.8362 -356.031 4.04936 -356.649 4.28027L-356.688 4.16992ZM43.2803 5.86914C42.6915 5.57233 42.0942 5.29048 41.4883 5.02539L41.5459 4.88379L41.5742 4.81738C42.192 5.06645 42.8017 5.33102 43.4033 5.61035L43.3633 5.69336L43.2803 5.86914ZM-360.363 5.69336L-360.402 5.61035C-359.801 5.33104 -359.191 5.06645 -358.573 4.81738L-358.546 4.88379L-358.487 5.02539C-359.093 5.29048 -359.69 5.57234 -360.279 5.86914L-360.363 5.69336ZM46.709 7.83691C46.1562 7.47888 45.5935 7.13589 45.0215 6.80762L45.1348 6.59863L45.1914 6.49707C45.7807 6.8084 46.3608 7.13446 46.9317 7.47461L46.8574 7.59473L46.709 7.83691ZM-363.857 7.59473L-363.931 7.47461C-363.36 7.13448 -362.78 6.80838 -362.19 6.49707L-362.135 6.59863L-362.02 6.80762C-362.593 7.13588 -363.155 7.47888 -363.708 7.83691L-363.857 7.59473ZM49.9024 10.1533C49.3917 9.73941 48.8698 9.33945 48.3379 8.95312L48.5254 8.67969L48.6221 8.54004C49.177 8.91043 49.7225 9.29381 50.2569 9.69141L50.1338 9.85059L49.9024 10.1533ZM-367.134 9.85059L-367.256 9.69141C-366.721 9.29381 -366.176 8.91043 -365.621 8.54004L-365.525 8.67969L-365.337 8.95312C-365.869 9.33945 -366.391 9.73943 -366.901 10.1533L-367.134 9.85059ZM52.8233 12.7891C52.3597 12.3249 51.8842 11.8734 51.3975 11.4346L51.6797 11.1035L51.832 10.9258C52.3471 11.3515 52.8495 11.7919 53.3418 12.2432L53.1572 12.4355L52.8233 12.7891ZM-370.157 12.4355L-370.341 12.2432C-369.848 11.792 -369.346 11.3515 -368.831 10.9258L-368.68 11.1035L-368.54 11.2666L-368.396 11.4346C-368.883 11.8734 -369.359 12.3249 -369.822 12.7891L-370.157 12.4355ZM55.4483 15.7041C55.0363 15.1959 54.6116 14.6991 54.1748 14.2139L54.2031 14.1875L54.2022 14.1865L54.5645 13.8428L54.7842 13.6348C55.2537 14.1114 55.7106 14.6004 56.1553 15.1006L55.8965 15.3203L55.4483 15.7041ZM-372.896 15.3203L-373.154 15.1006C-372.71 14.6004 -372.253 14.1114 -371.783 13.6348L-371.564 13.8428L-371.202 14.1865V14.1875L-371.174 14.2139C-371.611 14.6991 -372.035 15.1959 -372.447 15.7041L-372.896 15.3203ZM57.7529 18.8662C57.396 18.3195 57.0269 17.782 56.6436 17.2559L57.1494 16.8662L57.4512 16.6348C57.8702 17.1578 58.2759 17.6918 58.668 18.2363L58.3203 18.4746L57.9151 18.7539L57.7529 18.8662ZM-374.907 18.7588H-374.908L-375.32 18.4746L-375.667 18.2363C-375.275 17.6918 -374.869 17.1578 -374.45 16.6348L-374.149 16.8662L-373.643 17.2559C-374.026 17.782 -374.395 18.3195 -374.752 18.8662L-374.907 18.7588ZM59.7158 22.2393C59.417 21.6599 59.104 21.0895 58.7774 20.5283L59.4053 20.1426L59.8027 19.8994C60.1664 20.4637 60.5167 21.0374 60.8516 21.6211L60.4014 21.8652L60.3623 21.8867L59.7158 22.2393ZM-376.962 22.1045H-376.963L-377.401 21.8652L-377.851 21.6211C-377.516 21.0374 -377.165 20.4637 -376.802 19.8994L-376.405 20.1426L-375.776 20.5283C-376.103 21.0895 -376.416 21.6598 -376.715 22.2393L-376.962 22.1045ZM61.3213 25.7842C61.0834 25.179 60.8314 24.5814 60.5645 23.9922L61.3067 23.6367L61.8096 23.3975C62.1135 23.9973 62.4015 24.6064 62.6748 25.2236L62.1162 25.4541L61.3213 25.7842ZM-379.116 25.4541L-379.674 25.2236C-379.4 24.6064 -379.113 23.9973 -378.809 23.3975L-378.307 23.6367L-377.563 23.9922C-377.83 24.5815 -378.082 25.179 -378.32 25.7842L-379.116 25.4541ZM62.5596 29.4658C62.3842 28.8403 62.1917 28.2221 61.9863 27.6104L62.8301 27.3115L63.3008 27.1445L63.3018 27.1455L63.4453 27.0938C63.6856 27.7232 63.91 28.3603 64.1182 29.0049L63.4444 29.2031L62.5596 29.4658ZM-380.444 29.2031L-381.117 29.0049C-380.909 28.3603 -380.685 27.7232 -380.444 27.0937L-380.301 27.1455V27.1445L-379.83 27.3115L-378.985 27.6104C-379.191 28.2222 -379.383 28.8403 -379.559 29.4658L-380.444 29.2031ZM63.418 33.248C63.3063 32.6085 63.1786 31.9747 63.0361 31.3467L63.4727 31.2422L63.4717 31.2412L63.958 31.125L64.6904 30.9502C64.8639 31.6025 65.0211 32.2614 65.1611 32.9268L64.8613 32.9814L64.3701 33.0713L63.418 33.248ZM-381.37 33.0713L-381.861 32.9814H-381.86L-382.161 32.9268C-382.021 32.2614 -381.863 31.6026 -381.689 30.9502L-380.958 31.125L-380.472 31.2412V31.2422L-380.035 31.3467C-380.178 31.9747 -380.305 32.6085 -380.417 33.248L-381.37 33.0713ZM63.8945 37.0928C63.8468 36.4452 63.783 35.8022 63.7041 35.1641L64.6787 35.0371L65.5283 34.9268C65.6328 35.5945 65.721 36.2677 65.791 36.9463L64.8848 37.0156L63.8945 37.0928ZM-381.385 37.0547H-381.386L-381.885 37.0156L-382.791 36.9463C-382.721 36.2677 -382.633 35.5945 -382.528 34.9268L-381.679 35.0371L-380.703 35.1641C-380.782 35.8022 -380.846 36.4452 -380.894 37.0928L-381.385 37.0547ZM63.9893 39.0283L64.9873 39.002L65.9473 38.9785C65.9815 39.648 66 40.322 66 41V41.0156H64V40L63.9893 39.0283ZM-383 41C-383 40.322 -382.981 39.648 -382.947 38.9785L-381.987 39.002L-380.988 39.0283L-381 40V41.0156H-383V41ZM64 45.0781V43.0469H66V45.0781H64ZM-383 45.0781V43.0469H-381V45.0781H-383ZM64 49.1406V47.1094H66V49.1406H64ZM-383 49.1406V47.1094H-381V49.1406H-383ZM64 53.2031V51.1719H66V53.2031H64ZM-383 53.2031V51.1719H-381V53.2031H-383ZM64 57.2656V55.2344H66V57.2656H64ZM-383 57.2656V55.2344H-381V57.2656H-383ZM64 61.3281V59.2969H66V61.3281H64ZM-383 61.3281V59.2969H-381V61.3281H-383ZM64 65.3906V63.3594H66V65.3906H64ZM-383 65.3906V63.3594H-381V65.3906H-383ZM64 69.4531V67.4219H66V69.4531H64ZM-383 69.4531V67.4219H-381V69.4531H-383ZM64 73.5156V71.4844H66V73.5156H64ZM-383 73.5156V71.4844H-381V73.5156H-383ZM64 77.5781V75.5469H66V77.5781H64ZM-383 77.5781V75.5469H-381V77.5781H-383ZM64 81.6406V79.6094H66V81.6406H64ZM-383 81.6406V79.6094H-381V81.6406H-383ZM64 85.7031V83.6719H66V85.7031H64ZM-383 85.7031V83.6719H-381V85.7031H-383ZM64 89.7656V87.7344H66V89.7656H64ZM-383 89.7656V87.7344H-381V89.7656H-383ZM64 93.8281V91.7969H66V93.8281H64ZM-383 93.8281V91.7969H-381V93.8281H-383ZM64 97.8906V95.8594H66V97.8906H64ZM-383 97.8906V95.8594H-381V97.8906H-383ZM64 101.953V99.9219H66V101.953H64ZM-383 101.953V99.9219H-381V101.953H-383ZM64 103.984H66V104C66 104.678 65.9815 105.353 65.9473 106.022L64.9873 105.998L63.9893 105.973C63.9972 105.649 64 105.325 64 105V103.984ZM-383 104V103.984H-381V105C-381 105.325 -380.996 105.649 -380.988 105.973L-381.987 105.998L-382.947 106.022C-382.981 105.353 -383 104.678 -383 104ZM65.5283 110.074L64.6787 109.963L64.1826 109.898H64.1836L63.7041 109.837C63.783 109.199 63.8468 108.556 63.8945 107.908L64.3858 107.946V107.945L64.8848 107.984L65.791 108.055C65.7209 108.733 65.6328 109.406 65.5283 110.074ZM-382.528 110.074C-382.633 109.406 -382.721 108.733 -382.791 108.055L-381.885 107.984L-381.386 107.945L-381.385 107.946L-380.894 107.908C-380.846 108.556 -380.782 109.199 -380.703 109.837L-381.679 109.963L-382.528 110.074ZM64.4444 113.991L63.4717 113.759H63.4727L63.0361 113.654C63.1786 113.026 63.3063 112.392 63.418 111.753L64.3701 111.929L64.8613 112.019V112.02L65.1611 112.074C65.0211 112.74 64.864 113.398 64.6904 114.051L64.4444 113.991ZM-381.689 114.051C-381.863 113.398 -382.021 112.74 -382.161 112.074L-381.86 112.02L-381.861 112.019L-381.37 111.929L-380.417 111.753C-380.305 112.392 -380.178 113.026 -380.035 113.654L-380.472 113.759L-381.444 113.991L-381.689 114.051ZM62.8301 117.688L61.9863 117.391C62.1917 116.779 62.3842 116.161 62.5596 115.535L63.4444 115.797L64.1182 115.996C63.91 116.641 63.6856 117.278 63.4453 117.907L62.8301 117.688ZM-380.444 117.907C-380.685 117.278 -380.909 116.641 -381.117 115.996L-380.444 115.797L-379.559 115.535C-379.383 116.161 -379.191 116.779 -378.985 117.391L-379.83 117.688L-380.444 117.907ZM61.3067 121.363L60.5645 121.009C60.8314 120.42 61.0834 119.822 61.3213 119.217L62.1162 119.546L62.6748 119.777C62.4015 120.395 62.1135 121.004 61.8096 121.604L61.3067 121.363ZM-378.809 121.604C-379.113 121.004 -379.4 120.395 -379.674 119.777L-379.116 119.546L-378.32 119.217C-378.082 119.822 -377.83 120.42 -377.563 121.009L-378.307 121.363L-378.809 121.604ZM59.4053 124.857L58.7774 124.473C59.104 123.912 59.417 123.341 59.7158 122.762L59.9629 122.896V122.896L60.4014 123.135L60.8516 123.38C60.5167 123.964 60.1665 124.537 59.8027 125.102L59.4053 124.857ZM-376.802 125.102C-377.165 124.537 -377.516 123.964 -377.851 123.38L-377.401 123.135L-376.963 122.896L-376.962 122.896L-376.715 122.762C-376.416 123.341 -376.103 123.912 -375.776 124.473L-376.405 124.857L-376.802 125.102ZM57.1494 128.134L56.6436 127.745C57.0269 127.219 57.396 126.681 57.7529 126.135L57.9082 126.242V126.241L58.3203 126.525L58.668 126.765C58.2759 127.309 57.8702 127.843 57.4512 128.366L57.1494 128.134ZM-374.45 128.366C-374.869 127.843 -375.275 127.309 -375.667 126.765L-375.32 126.525L-374.908 126.241L-374.907 126.242L-374.752 126.135C-374.395 126.681 -374.026 127.219 -373.643 127.745L-374.149 128.134L-374.45 128.366ZM54.7842 131.366L54.5645 131.157L54.1748 130.787C54.6116 130.302 55.0363 129.805 55.4483 129.297L55.8965 129.68L56.1553 129.9C55.7106 130.401 55.2537 130.89 54.7842 131.366ZM-371.783 131.366C-372.253 130.89 -372.71 130.401 -373.154 129.9L-372.896 129.68L-372.447 129.297C-372.035 129.805 -371.611 130.302 -371.174 130.787L-371.564 131.157L-371.783 131.366ZM51.832 134.075L51.6797 133.896L51.3975 133.566C51.8842 133.128 52.3597 132.676 52.8233 132.212L53.1572 132.564L53.3418 132.758C52.8495 133.209 52.3471 133.649 51.832 134.075ZM-368.831 134.075C-369.346 133.649 -369.848 133.209 -370.341 132.758L-370.157 132.564L-369.841 132.23L-369.822 132.212C-369.359 132.676 -368.883 133.128 -368.396 133.566L-368.68 133.896L-368.831 134.075ZM48.6221 136.461L48.5254 136.32L48.3379 136.048C48.8698 135.662 49.3917 135.262 49.9024 134.848L50.1338 135.149L50.2569 135.31C49.7225 135.707 49.177 136.091 48.6221 136.461ZM-365.621 136.461C-366.176 136.091 -366.721 135.707 -367.256 135.31L-367.134 135.149L-366.901 134.848C-366.391 135.262 -365.869 135.662 -365.337 136.048L-365.525 136.32L-365.539 136.34L-365.621 136.461ZM45.1348 138.401L45.0215 138.193C45.5935 137.865 46.1562 137.522 46.709 137.164L46.8574 137.405L46.9317 137.526C46.3608 137.866 45.7807 138.193 45.1914 138.504L45.1348 138.401ZM-362.19 138.504C-362.78 138.193 -363.36 137.866 -363.931 137.526L-363.857 137.405L-363.708 137.164C-363.155 137.522 -362.592 137.865 -362.02 138.193L-362.135 138.401L-362.19 138.504ZM41.5459 140.116L41.4883 139.976C42.0942 139.711 42.6915 139.429 43.2803 139.132L43.3633 139.307L43.4033 139.391C42.8017 139.67 42.192 139.935 41.5742 140.184L41.5459 140.116ZM-358.573 140.184C-359.191 139.935 -359.801 139.67 -360.402 139.391L-360.363 139.307L-360.279 139.132C-359.69 139.429 -359.093 139.711 -358.487 139.976L-358.546 140.116L-358.573 140.184ZM37.7969 141.444L37.7735 141.362C38.4063 141.165 39.0324 140.952 39.6504 140.721L39.6885 140.83L39.707 140.882C39.0812 141.097 38.4484 141.298 37.8086 141.482L37.7969 141.444ZM-354.808 141.482C-355.447 141.298 -356.08 141.097 -356.706 140.882L-356.688 140.83L-356.649 140.721C-356.031 140.952 -355.405 141.165 -354.772 141.362L-354.797 141.444L-354.808 141.482ZM33.9287 142.37L33.9219 142.333C34.5746 142.206 35.2213 142.063 35.8613 141.901L35.875 141.958L35.8819 141.983C35.2377 142.133 34.5876 142.268 33.9317 142.386L33.9287 142.37ZM-350.931 142.386C-351.587 142.268 -352.237 142.133 -352.881 141.983L-352.875 141.958L-352.86 141.901C-352.22 142.063 -351.574 142.206 -350.921 142.333L-350.929 142.37L-350.931 142.386ZM29.9844 142.885V142.878C30.6484 142.823 31.3073 142.749 31.961 142.659L31.9629 142.679L31.9649 142.688C31.31 142.771 30.65 142.838 29.9854 142.889L29.9844 142.885ZM-346.984 142.889C-347.649 142.838 -348.309 142.771 -348.964 142.687L-348.963 142.679L-348.96 142.659C-348.306 142.749 -347.647 142.824 -346.983 142.878L-346.984 142.885V142.889ZM27 143C27.3337 143 27.6664 142.995 27.9981 142.986V142.987L27.999 142.988C27.6671 142.997 27.334 143 27 143ZM-344.998 142.988V142.987L-344.997 142.986C-344.666 142.995 -344.333 143 -344 143C-344.334 143 -344.666 142.997 -344.998 142.988Z" fill="#33F498" fill-opacity="0.5" mask="url(#path-2-inside-1_828_2191)"/>
<mask id="path-4-inside-2_828_2191" fill="white">
<path d="M60.4388 106.083C60.4388 124.309 45.6642 139.083 27.4388 139.083L-344.439 139.083C-362.664 139.083 -377.439 124.309 -377.439 106.083V38.9166C-377.439 20.6913 -362.664 5.91666 -344.439 5.91666L27.4388 5.91666C45.6642 5.91666 60.4388 20.6913 60.4388 38.9167L60.4388 106.083Z"/>
</mask>
<path d="M-345.259 5.92708L-344.439 5.91634C-344.715 5.91634 -344.99 5.92155 -345.264 5.92805C-345.263 5.92801 -345.261 5.92712 -345.259 5.92708ZM28.265 5.92805H28.3216C28.3604 5.92903 28.3991 5.93182 28.4378 5.93294V5.93489C28.3802 5.93304 28.3226 5.92958 28.265 5.92805ZM-345.437 5.93294C-345.38 5.93129 -345.322 5.92943 -345.264 5.92805C-345.322 5.92958 -345.38 5.93304 -345.437 5.93489V5.93294ZM32.4017 6.3177C31.7495 6.21164 31.0908 6.12807 30.4261 6.0638L30.4271 6.05013L30.4281 6.04817C31.0936 6.1058 31.7535 6.18246 32.4075 6.27766L32.4056 6.28841L32.4017 6.3177ZM-349.406 6.28841L-349.407 6.27766C-348.753 6.18246 -348.093 6.10579 -347.427 6.04817V6.05013L-347.425 6.0638C-348.09 6.12805 -348.749 6.21165 -349.401 6.3177L-349.406 6.28841ZM36.2796 7.21028C35.6463 7.02045 35.0047 6.85185 34.3558 6.70247L34.3675 6.64485L34.3734 6.62141C35.028 6.75624 35.6753 6.91165 36.3158 7.08333L36.304 7.12141L36.2796 7.21028ZM-353.279 7.21028L-353.304 7.12141L-353.315 7.08333C-352.675 6.91167 -352.027 6.75624 -351.373 6.62141L-351.368 6.64485L-351.355 6.70247C-352.004 6.85184 -352.646 7.02046 -353.279 7.21028ZM39.9993 8.59309C39.3968 8.32394 38.7845 8.07399 38.1634 7.84309L38.2074 7.71321L38.2279 7.65559C38.8619 7.86623 39.4879 8.09404 40.1048 8.34016L40.0706 8.42024L39.9993 8.59309ZM-357.071 8.42024L-357.104 8.34016C-356.487 8.09404 -355.861 7.86621 -355.227 7.65559L-355.208 7.71321L-355.163 7.84309C-355.784 8.07397 -356.396 8.32394 -356.999 8.59309L-357.071 8.42024ZM43.5033 10.4339C42.9401 10.0911 42.3662 9.76547 41.7816 9.45833L41.888 9.23958L41.9388 9.13704C42.5446 9.42108 43.1421 9.71953 43.7279 10.0374L43.6527 10.1683L43.5033 10.4339ZM-360.503 10.4339L-360.653 10.1683L-360.726 10.0374C-360.141 9.71968 -359.544 9.42094 -358.938 9.13704L-358.888 9.23958L-358.781 9.45833C-359.366 9.76546 -359.939 10.0911 -360.503 10.4339ZM46.7366 12.6898C46.2219 12.2813 45.6963 11.8869 45.1575 11.5111L45.3577 11.2005L45.4583 11.0462C46.0274 11.3997 46.586 11.7683 47.1322 12.1536L46.9974 12.3343L46.7366 12.6898ZM-363.998 12.3343L-364.131 12.1536C-363.585 11.7685 -363.027 11.3996 -362.458 11.0462L-362.358 11.2005L-362.157 11.5111C-362.696 11.8868 -363.221 12.2805 -363.736 12.6888L-363.998 12.3343ZM-367.058 14.888L-367.268 14.6644L-367.273 14.6595C-366.774 14.2115 -366.262 13.7781 -365.737 13.3597L-365.566 13.5658L-365.24 13.9564C-365.726 14.3932 -366.198 14.8466 -366.658 15.3128L-367.058 14.888ZM49.6595 15.3128C49.1995 14.8464 48.727 14.3934 48.2406 13.9564L48.5658 13.5658L48.7386 13.3607C49.2631 13.7788 49.775 14.2118 50.2738 14.6595L50.0579 14.888L49.6595 15.3128ZM52.2327 18.2552C51.8331 17.7395 51.4207 17.235 50.9925 16.7454L51.4671 16.2972L51.7327 16.0482C52.2063 16.5261 52.6658 17.0177 53.1107 17.5228L52.7904 17.7894L52.6273 17.9251L52.2327 18.2552ZM-369.329 18.1741H-369.33L-369.79 17.7894L-370.11 17.5228C-369.665 17.0177 -369.206 16.5261 -368.732 16.0482L-368.467 16.2972L-368.119 16.6263L-367.992 16.7454C-368.42 17.235 -368.832 17.7395 -369.232 18.2552L-369.329 18.1741ZM54.432 21.4671C54.0969 20.9101 53.7477 20.3635 53.3822 19.8294L54.0208 19.3577L54.4017 19.0775C54.817 19.6089 55.2161 20.1534 55.5999 20.7093L55.1546 20.9974L54.6507 21.3236L54.432 21.4671ZM-372.155 20.9974L-372.599 20.7103C-372.215 20.1541 -371.816 19.6091 -371.401 19.0775L-371.02 19.3577L-370.382 19.8294C-370.747 20.3631 -371.096 20.9096 -371.43 21.4661L-372.155 20.9974ZM56.2327 24.8988C55.9656 24.3089 55.6843 23.7277 55.3851 23.1575L55.6663 22.9984L55.6654 22.9974L56.1878 22.7025L56.7044 22.4105C57.0552 22.989 57.3877 23.5797 57.7044 24.18L57.1156 24.4671L56.2327 24.8988ZM-373.575 24.7308H-373.576L-374.116 24.4671L-374.655 24.2044H-374.654L-374.704 24.181C-374.387 23.5805 -374.054 22.9902 -373.703 22.4115L-373.187 22.7025L-372.665 22.9974V22.9984L-372.384 23.1575C-372.684 23.7277 -372.965 24.3089 -373.232 24.8988L-373.575 24.7308ZM57.6204 28.5013C57.4235 27.8864 57.2111 27.2792 56.9808 26.681L57.9349 26.2845L58.6019 26.0081C58.8822 26.6263 59.1431 27.2548 59.387 27.8919L58.6419 28.1478L57.6204 28.5013ZM-375.074 28.3441H-375.075L-375.642 28.1478L-376.385 27.8919C-376.142 27.2549 -375.882 26.6262 -375.601 26.0081L-374.934 26.2845L-373.979 26.681C-374.209 27.2793 -374.423 27.8863 -374.62 28.5013L-375.074 28.3441ZM-376.123 32.1136H-376.124L-376.711 31.9876L-377.617 31.7952C-377.45 31.1294 -377.265 30.4713 -377.06 29.8216L-376.234 30.0511L-375.155 30.3529C-375.315 30.9713 -375.458 31.5966 -375.584 32.2288L-376.123 32.1136ZM58.5853 32.2288C58.4599 31.5966 58.3153 30.9714 58.1556 30.3529L59.2347 30.0511L60.0609 29.8226C60.2656 30.4719 60.4502 31.1298 60.6165 31.7952L59.7103 31.9876L58.5853 32.2288ZM59.1175 36.0355C59.064 35.3936 58.993 34.7571 58.9046 34.1263L60.0677 33.9495L61.054 33.8011C61.1792 34.4716 61.286 35.1487 61.3714 35.8324L60.305 35.9281L59.1175 36.0355ZM-377.305 35.9281L-378.372 35.8324C-378.286 35.1486 -378.179 34.4717 -378.053 33.8011L-377.067 33.9495L-375.904 34.1263C-375.992 34.7571 -376.063 35.3936 -376.117 36.0355L-377.305 35.9281ZM59.2288 38.0648C59.228 38.0309 59.2268 37.9971 59.2259 37.9632C59.2258 37.9599 59.225 37.9567 59.2249 37.9534L59.8255 37.9359L59.8245 37.9349L60.4241 37.9173L61.5638 37.8841C61.6069 38.5526 61.6319 39.2262 61.6361 39.9046H59.2386V38.9163L59.2288 38.0648ZM-378.635 39.9046C-378.631 39.2262 -378.607 38.5526 -378.564 37.8841L-377.424 37.9173L-376.824 37.9349V37.9359L-376.224 37.9534C-376.224 37.9567 -376.224 37.96 -376.224 37.9632C-376.225 37.9971 -376.227 38.0309 -376.228 38.0648L-376.239 38.9163V39.9046H-378.635ZM59.2386 43.8558V41.8802H61.639V43.8558H59.2386ZM-378.638 43.8558V41.8802H-376.239V43.8558H-378.638ZM59.2386 47.806V45.8304H61.639V47.806H59.2386ZM-378.638 47.806V45.8304H-376.239V47.806H-378.638ZM59.2386 51.7572V49.7816H61.639V51.7572H59.2386ZM-378.638 51.7572V49.7816H-376.239V51.7572H-378.638ZM59.2386 55.7083V53.7327H61.639V55.7083H59.2386ZM-378.638 55.7083V53.7327H-376.239V55.7083H-378.638ZM59.2386 59.6595V57.6839H61.639V59.6595H59.2386ZM-378.638 59.6595V57.6839H-376.239V59.6595H-378.638ZM59.2386 63.6107V61.6351H61.639V63.6107H59.2386ZM-378.638 63.6107V61.6351H-376.239V63.6107H-378.638ZM59.2386 67.5609V65.5863H61.639V67.5609H59.2386ZM-378.638 67.5609V65.5863H-376.239V67.5609H-378.638ZM59.2386 71.512V69.5365H61.639V71.512H59.2386ZM-378.638 71.512V69.5365H-376.239V71.512H-378.638ZM59.2386 75.4632V73.4876H61.639V75.4632H59.2386ZM-378.638 75.4632V73.4876H-376.239V75.4632H-378.638ZM59.2386 79.4144V77.4388H61.639V79.4144H59.2386ZM-378.638 79.4144V77.4388H-376.239V79.4144H-378.638ZM59.2386 83.3656V81.39H61.639V83.3656H59.2386ZM-378.638 83.3656V81.39H-376.239V83.3656H-378.638ZM59.2386 87.3158V85.3411H61.639V87.3158H59.2386ZM-378.638 87.3158V85.3411H-376.239V87.3158H-378.638ZM59.2386 91.2669V89.2913H61.639V91.2669H59.2386ZM-378.638 91.2669V89.2913H-376.239V91.2669H-378.638ZM59.2386 95.2181V93.2425H61.639V95.2181H59.2386ZM-378.638 95.2181V93.2425H-376.239V95.2181H-378.638ZM59.2386 99.1693V97.1937H61.639V99.1693H59.2386ZM-378.638 99.1693V97.1937H-376.239V99.1693H-378.638ZM59.2386 103.12V101.145H61.639V103.12H59.2386ZM-378.638 103.12V101.145H-376.239V103.12H-378.638ZM59.2386 105.096H61.6361C61.6319 105.775 61.6069 106.449 61.5638 107.118L60.4241 107.082L59.2249 107.047C59.2338 106.727 59.2386 106.406 59.2386 106.083V105.096ZM-378.564 107.118C-378.607 106.449 -378.631 105.775 -378.635 105.096H-376.239V106.083C-376.239 106.406 -376.232 106.727 -376.223 107.047L-377.424 107.082L-378.564 107.118ZM61.054 111.2L60.0677 111.05L58.9046 110.875C58.9931 110.244 59.064 109.607 59.1175 108.965L60.305 109.072L61.3714 109.168C61.286 109.852 61.1792 110.529 61.054 111.2ZM-378.053 111.2C-378.179 110.529 -378.286 109.852 -378.372 109.168L-377.305 109.072L-376.117 108.965C-376.063 109.607 -375.992 110.244 -375.904 110.875L-377.067 111.05L-378.053 111.2ZM59.8138 115.11H59.8128L59.2347 114.949L58.1556 114.649C58.3154 114.03 58.4598 113.404 58.5853 112.772L59.7103 113.012L60.2972 113.137V113.138L60.6165 113.206C60.4502 113.871 60.2655 114.529 60.0609 115.178L59.8138 115.11ZM-377.06 115.179C-377.265 114.53 -377.45 113.872 -377.617 113.206L-377.296 113.138L-377.297 113.137L-376.711 113.012L-375.584 112.772C-375.458 113.404 -375.315 114.03 -375.155 114.649L-376.234 114.949L-377.06 115.179ZM58.4896 118.946H58.4886L57.9349 118.715L57.3802 118.486H57.3812L56.9808 118.32C57.2111 117.721 57.4235 117.114 57.6204 116.499L58.6419 116.852L59.2093 117.047V117.048L59.387 117.11C59.1432 117.747 58.8821 118.375 58.6019 118.993L58.4896 118.946ZM-375.601 118.993C-375.881 118.375 -376.142 117.746 -376.385 117.11L-376.208 117.048L-376.209 117.047L-375.642 116.852L-374.62 116.499C-374.423 117.114 -374.21 117.721 -373.979 118.32L-374.934 118.715L-375.601 118.993ZM56.1878 122.297L55.3851 121.844C55.6845 121.274 55.9664 120.692 56.2337 120.102L57.1156 120.533L57.7044 120.821C57.3876 121.421 57.0552 122.012 56.7044 122.59L56.1878 122.297ZM-373.703 122.59C-374.054 122.011 -374.387 121.42 -374.704 120.82L-374.116 120.533L-373.232 120.102C-372.965 120.692 -372.684 121.274 -372.384 121.844L-373.187 122.297L-373.703 122.59ZM54.0208 125.642L53.5374 125.286H53.5384L53.3822 125.171C53.7475 124.637 54.097 124.091 54.432 123.535L55.1546 124.002L55.6009 124.291C55.2168 124.848 54.8172 125.392 54.4017 125.924L54.0208 125.642ZM-371.401 125.924C-371.816 125.393 -372.215 124.847 -372.599 124.291L-372.155 124.002L-371.431 123.535C-371.096 124.091 -370.747 124.638 -370.382 125.172L-371.02 125.642L-371.401 125.924ZM51.4671 128.702L50.9925 128.255C51.4207 127.766 51.8331 127.261 52.2327 126.745L52.7904 127.21L53.1107 127.478C52.666 127.983 52.2071 128.475 51.7337 128.952L51.4671 128.702ZM-368.732 128.953C-369.206 128.476 -369.665 127.984 -370.11 127.479L-369.79 127.21L-369.232 126.746C-368.833 127.262 -368.42 127.766 -367.992 128.255L-368.467 128.702L-368.732 128.953ZM-365.737 131.641C-366.262 131.223 -366.774 130.789 -367.273 130.341L-367.058 130.112L-366.658 129.688C-366.198 130.154 -365.726 130.608 -365.24 131.045L-365.566 131.435L-365.737 131.641ZM48.5658 131.435L48.2406 131.045C48.727 130.608 49.1995 130.155 49.6595 129.689L50.0579 130.112L50.2738 130.341C49.7749 130.789 49.2633 131.223 48.7386 131.641L48.5658 131.435ZM45.3577 133.799L45.1575 133.49C45.6964 133.114 46.2229 132.72 46.7376 132.312L46.9974 132.665L47.1322 132.847C46.586 133.232 46.0274 133.601 45.4583 133.954L45.3577 133.799ZM-362.458 133.954C-363.027 133.601 -363.585 133.232 -364.131 132.847L-363.998 132.665L-363.737 132.312C-363.222 132.72 -362.696 133.114 -362.157 133.49L-362.358 133.799L-362.458 133.954ZM-358.938 135.865C-359.544 135.581 -360.141 135.281 -360.726 134.963L-360.653 134.832L-360.503 134.567C-359.939 134.91 -359.366 135.235 -358.781 135.542L-358.888 135.76L-358.938 135.865ZM41.888 135.76L41.7816 135.542C42.366 135.235 42.9402 134.91 43.5033 134.568L43.6527 134.832L43.7269 134.963C43.1412 135.281 42.5445 135.581 41.9388 135.865L41.888 135.76ZM38.2074 137.286L38.1634 137.159C38.7846 136.928 39.3967 136.677 39.9993 136.408L40.0706 136.579L40.1048 136.66C39.4879 136.907 38.8619 137.134 38.2279 137.345L38.2074 137.286ZM-355.227 137.345C-355.861 137.134 -356.487 136.907 -357.104 136.66L-357.071 136.579L-356.999 136.408C-356.396 136.677 -355.784 136.928 -355.163 137.159L-355.208 137.286L-355.227 137.345ZM34.3675 138.355L34.3558 138.299C35.0047 138.15 35.6463 137.98 36.2796 137.79L36.304 137.879L36.3148 137.917C35.6746 138.089 35.0278 138.245 34.3734 138.38L34.3675 138.355ZM-351.373 138.38C-352.027 138.245 -352.674 138.089 -353.314 137.917L-353.304 137.879L-353.279 137.79C-352.646 137.98 -352.004 138.15 -351.355 138.299L-351.368 138.355L-351.373 138.38ZM30.4271 138.95L30.4261 138.938C31.0908 138.874 31.7495 138.789 32.4017 138.683L32.4056 138.712L32.4075 138.723C31.7535 138.818 31.0936 138.895 30.4281 138.952L30.4271 138.95ZM-347.427 138.952C-348.093 138.895 -348.753 138.818 -349.407 138.723L-349.406 138.712L-349.401 138.683C-348.749 138.789 -348.09 138.874 -347.425 138.938L-347.427 138.95V138.952ZM28.2591 139.073C28.3187 139.071 28.3783 139.068 28.4378 139.066V139.069C28.106 139.078 27.7729 139.083 27.4388 139.083L28.2591 139.073ZM-345.322 139.073C-345.36 139.072 -345.399 139.07 -345.437 139.069V139.066C-345.106 139.076 -344.773 139.083 -344.439 139.083L-345.322 139.073Z" fill="#33F498" fill-opacity="0.75" mask="url(#path-4-inside-2_828_2191)"/>
<mask id="path-6-inside-3_828_2191" fill="white">
<path d="M54.3572 108.167C54.3572 123.078 42.2689 135.167 27.3572 135.167L-344.357 135.167C-359.269 135.167 -371.357 123.078 -371.357 108.167V36.8334C-371.357 21.9217 -359.269 9.83334 -344.357 9.83334L27.3571 9.83334C42.2688 9.83334 54.3572 21.9216 54.3572 36.8333L54.3572 108.167Z"/>
</mask>
<path d="M28.323 9.85515C28.0025 9.84251 27.6806 9.83366 27.3572 9.83366C27.6804 9.83366 28.0023 9.84154 28.323 9.85222V9.85515ZM-345.322 9.85222C-345.001 9.84157 -344.679 9.83366 -344.357 9.83366C-344.68 9.83366 -345.002 9.84254 -345.322 9.85515V9.85222ZM32.1452 10.3102C31.5189 10.1842 30.8846 10.083 30.2429 10.0065L30.2449 9.98601L30.2458 9.9782C30.8899 10.043 31.5273 10.131 32.1579 10.238L32.154 10.2585L32.1452 10.3102ZM-349.154 10.2585L-349.157 10.238C-348.526 10.131 -347.888 10.043 -347.244 9.9782V9.98601L-347.241 10.0065C-347.883 10.083 -348.517 10.1843 -349.144 10.3102L-349.154 10.2585ZM35.8357 11.3639C35.2378 11.1408 34.6298 10.9406 34.0124 10.7643L34.0368 10.6657L34.0476 10.6257C34.6767 10.777 35.2978 10.948 35.9099 11.1403L35.8865 11.2087L35.8396 11.3493L35.8357 11.3639ZM-352.887 11.2087L-352.909 11.1403C-352.297 10.9479 -351.676 10.7771 -351.046 10.6257L-351.036 10.6657L-351.011 10.7643C-351.629 10.9407 -352.237 11.1407 -352.835 11.3639L-352.887 11.2087ZM39.3005 12.9743C38.746 12.6624 38.1792 12.372 37.6013 12.1032L37.6921 11.8825L37.7341 11.7829C38.3374 12.0189 38.9299 12.2763 39.5124 12.5514L39.4451 12.6842L39.3044 12.9645L39.3005 12.9743ZM-356.446 12.6842L-356.512 12.5514C-355.929 12.2763 -355.337 12.0189 -354.734 11.7829L-354.693 11.8825L-354.601 12.1032C-355.179 12.372 -355.745 12.6624 -356.3 12.9743L-356.446 12.6842ZM42.4607 15.0788C41.9615 14.6896 41.4486 14.3191 40.9226 13.9684L41.1365 13.6091L41.238 13.4391C41.8051 13.756 42.3608 14.0904 42.9031 14.444L42.7566 14.653L42.4607 15.0788ZM-359.757 14.653L-359.902 14.445C-359.359 14.0913 -358.804 13.7561 -358.237 13.4391L-358.136 13.6091L-357.922 13.9684C-358.448 14.319 -358.961 14.6896 -359.46 15.0788L-359.757 14.653ZM45.2585 17.6071C44.8235 17.153 44.3727 16.7159 43.9079 16.2956L44.2995 15.8092L44.4988 15.5632C45.0193 15.9557 45.5264 16.3652 46.0183 16.7917L45.7556 17.0719L45.2585 17.6071ZM-362.755 17.0719L-363.017 16.7917C-362.525 16.3652 -362.018 15.9557 -361.497 15.5632L-361.299 15.8092L-360.992 16.1891L-360.907 16.2946C-361.372 16.7149 -361.822 17.153 -362.257 17.6071L-362.755 17.0719ZM47.6492 20.4831C47.2845 19.9765 46.9044 19.4831 46.5076 19.0055L46.571 18.9469L46.5701 18.946L47.1189 18.4352L47.4529 18.1247C47.9172 18.5864 48.3648 19.0647 48.7966 19.5573L48.3816 19.8913L47.6492 20.4831ZM-364.649 20.4831L-365.381 19.8913L-365.795 19.5573C-365.363 19.0647 -364.916 18.5864 -364.451 18.1247L-364.118 18.4352L-363.57 18.946V18.9469L-363.506 19.0055C-363.903 19.4833 -364.284 19.9763 -364.649 20.4831ZM49.6062 23.6354C49.3158 23.0878 49.0079 22.5521 48.6833 22.029L49.5378 21.4333L50.0427 21.0827C50.4417 21.6065 50.8227 22.1446 51.1853 22.696L50.5818 23.0544L49.6062 23.6354ZM-367.581 23.0544L-368.185 22.696C-367.822 22.1446 -367.441 21.6065 -367.042 21.0827L-366.537 21.4333L-365.682 22.028C-366.007 22.5515 -366.315 23.0874 -366.606 23.6354L-367.581 23.0544ZM51.1111 26.9958C50.8975 26.418 50.6651 25.8502 50.4158 25.2926L51.5066 24.7448L52.1765 24.4089L52.1775 24.4098L52.2165 24.3893C52.5412 24.9668 52.8469 25.5564 53.1316 26.1579L52.3083 26.4977L51.1111 26.9958ZM-368.615 26.7858H-368.615L-369.308 26.4977L-370.001 26.2106H-370L-370.13 26.1569C-369.846 25.5558 -369.541 24.9665 -369.216 24.3893L-368.506 24.7448L-367.415 25.2926C-367.665 25.8501 -367.896 26.4181 -368.11 26.9958L-368.615 26.7858ZM52.1511 30.5046C52.0154 29.9064 51.8618 29.3159 51.6892 28.7341L52.9822 28.3034L53.9216 27.9909C54.1635 28.6118 54.384 29.2433 54.5827 29.8844L54.2517 29.9694L53.5242 30.154L52.1511 30.5046ZM-370.525 30.154L-371.251 29.9694H-371.25L-371.583 29.8844C-371.385 29.2434 -371.162 28.6127 -370.92 27.9919L-369.982 28.3034L-368.688 28.7341C-368.86 29.316 -369.014 29.9064 -369.15 30.5046L-370.525 30.154ZM52.7283 34.1032C52.6705 33.4941 52.5922 32.8911 52.4968 32.2946L53.9324 32.0368L55.1101 31.8259C55.2625 32.4786 55.3911 33.1401 55.4978 33.8092L54.2048 33.946L52.7283 34.1032ZM-370.458 34.0251H-370.459L-371.204 33.946L-372.497 33.8092C-372.391 33.1401 -372.262 32.4786 -372.11 31.8259L-370.932 32.0368L-369.496 32.2946C-369.592 32.8911 -369.67 33.494 -369.728 34.1032L-370.458 34.0251ZM52.8572 36.8337C52.8572 36.6333 52.8549 36.4332 52.8503 36.2341C52.8487 36.1568 52.8467 36.0797 52.8445 36.0026C52.8436 35.9753 52.8425 35.9479 52.8415 35.9206L54.3406 35.8678L55.7449 35.819C55.8027 36.4811 55.8385 37.1496 55.8503 37.8239H52.8572V36.8337ZM-372.851 37.8239C-372.839 37.1495 -372.802 36.4812 -372.744 35.819L-371.34 35.8678L-369.841 35.9206C-369.841 35.9238 -369.841 35.9271 -369.841 35.9303C-369.845 36.0506 -369.848 36.171 -369.85 36.2917C-369.854 36.4718 -369.857 36.6526 -369.857 36.8337V37.8239H-372.851ZM52.8572 41.7868V39.8053H55.8572V41.7868H52.8572ZM-372.857 41.7868V39.8053H-369.857V41.7868H-372.857ZM52.8572 45.7497V43.7682H55.8572V45.7497H52.8572ZM-372.857 45.7497V43.7682H-369.857V45.7497H-372.857ZM52.8572 49.7126V47.7311H55.8572V49.7126H52.8572ZM-372.857 49.7126V47.7311H-369.857V49.7126H-372.857ZM52.8572 53.6755V51.694H55.8572V53.6755H52.8572ZM-372.857 53.6764V51.694H-369.857V53.6764H-372.857ZM52.8572 57.6393V55.6579H55.8572V57.6393H52.8572ZM-372.857 57.6393V55.6579H-369.857V57.6393H-372.857ZM52.8572 61.6022V59.6208H55.8572V61.6022H52.8572ZM-372.857 61.6022V59.6208H-369.857V61.6022H-372.857ZM52.8572 65.5651V63.5837H55.8572V65.5651H52.8572ZM-372.857 65.5651V63.5837H-369.857V65.5651H-372.857ZM52.8572 69.528L52.8572 67.5466H55.8572L55.8572 69.528H52.8572ZM-372.857 69.528V67.5466H-369.857V69.528H-372.857ZM52.8572 73.4909V71.5094H55.8572V73.4909H52.8572ZM-372.857 73.4909V71.5094H-369.857V73.4909H-372.857ZM52.8572 77.4538V75.4723H55.8572V77.4538H52.8572ZM-372.857 77.4538V75.4723H-369.857V77.4538H-372.857ZM52.8572 81.4167V79.4352H55.8572V81.4167H52.8572ZM-372.857 81.4167V79.4352H-369.857V81.4167H-372.857ZM52.8572 85.3796V83.3981H55.8572V85.3796H52.8572ZM-372.857 85.3796V83.3981H-369.857V85.3796H-372.857ZM52.8572 89.3425V87.361H55.8572V89.3425H52.8572ZM-372.857 89.3425V87.361H-369.857V89.3425H-372.857ZM52.8572 93.3053V91.3239H55.8572V93.3053H52.8572ZM-372.857 93.3053V91.3239H-369.857V93.3053H-372.857ZM52.8572 97.2682V95.2868H55.8572V97.2682H52.8572ZM-372.857 97.2682V95.2868H-369.857V97.2682H-372.857ZM52.8572 101.231V99.2497H55.8572V101.231H52.8572ZM-372.857 101.231V99.2497H-369.857V101.231H-372.857ZM52.8572 105.194V103.213H55.8572V105.194H52.8572ZM-372.857 105.194V103.213H-369.857V105.194H-372.857ZM52.8572 107.175H55.8503C55.8385 107.85 55.8028 108.52 55.7449 109.182L54.3406 109.132L53.5906 109.106H53.5915L52.8415 109.08C52.8425 109.053 52.8436 109.026 52.8445 109C52.8467 108.922 52.8487 108.844 52.8503 108.766C52.8549 108.567 52.8572 108.367 52.8572 108.167V107.175ZM-372.744 109.182C-372.802 108.52 -372.839 107.85 -372.851 107.175H-369.857V108.167C-369.857 108.347 -369.854 108.528 -369.85 108.708C-369.848 108.832 -369.844 108.956 -369.84 109.08L-371.34 109.132L-372.744 109.182ZM53.9324 112.964L52.4968 112.706C52.5922 112.109 52.6705 111.506 52.7283 110.897L53.4587 110.975V110.974L54.2048 111.054L55.4978 111.192C55.391 111.861 55.2626 112.523 55.1101 113.175L53.9324 112.964ZM-372.11 113.175C-372.262 112.523 -372.391 111.861 -372.497 111.192L-371.204 111.054L-370.459 110.974L-370.458 110.975L-369.728 110.897C-369.67 111.506 -369.592 112.109 -369.496 112.706L-370.932 112.964L-372.11 113.175ZM53.6951 116.933H53.6941L52.9822 116.696L52.28 116.463L51.6892 116.267C51.8618 115.685 52.0154 115.095 52.1511 114.497L52.7976 114.662V114.661L53.5242 114.846L54.2517 115.031V115.032L54.5827 115.116C54.384 115.757 54.1645 116.389 53.9226 117.009L53.6951 116.933ZM-370.921 117.009C-371.163 116.389 -371.384 115.757 -371.582 115.116L-370.525 114.846L-369.798 114.661L-369.797 114.662L-369.15 114.497C-369.014 115.095 -368.86 115.685 -368.688 116.267L-369.982 116.696L-370.921 117.009ZM52.1775 120.591H52.1765L51.5066 120.255L50.4158 119.708C50.665 119.15 50.8976 118.583 51.1111 118.006L52.3083 118.502L53.0007 118.789V118.79L53.1306 118.843C52.8461 119.445 52.541 120.034 52.2165 120.611L52.1775 120.591ZM-369.216 120.612C-369.541 120.035 -369.846 119.445 -370.13 118.843L-369.308 118.502L-368.11 118.006C-367.896 118.583 -367.665 119.151 -367.415 119.709L-368.506 120.255L-369.216 120.612ZM49.5378 123.566L48.9216 123.138H48.9226L48.6833 122.972C49.0079 122.449 49.3158 121.913 49.6062 121.366L50.5818 121.946L51.1853 122.304C50.8227 122.856 50.4417 123.394 50.0427 123.918L49.5378 123.566ZM-367.042 123.919C-367.441 123.395 -367.822 122.857 -368.185 122.305L-367.581 121.946L-366.937 121.562L-366.936 121.563L-366.606 121.366C-366.315 121.913 -366.007 122.449 -365.683 122.972L-366.537 123.566L-366.868 123.797L-367.042 123.919ZM47.1189 126.565L46.5076 125.996C46.9044 125.518 47.2845 125.025 47.6492 124.518L47.7976 124.638V124.637L48.3816 125.109L48.7966 125.444C48.3648 125.937 47.9162 126.414 47.4519 126.876L47.1189 126.565ZM-364.451 126.877C-364.916 126.415 -365.363 125.937 -365.795 125.444L-365.381 125.109L-364.993 124.796L-364.649 124.518C-364.284 125.025 -363.903 125.518 -363.506 125.996L-364.118 126.565L-364.451 126.877ZM44.2995 129.191L44.1667 129.026L43.9079 128.706C44.3727 128.285 44.8235 127.848 45.2585 127.394L45.7556 127.928L46.0173 128.21C45.5255 128.636 45.0182 129.045 44.4978 129.437L44.2995 129.191ZM-361.497 129.437C-362.018 129.045 -362.524 128.636 -363.016 128.21L-362.755 127.928L-362.3 127.439L-362.257 127.394C-361.822 127.848 -361.372 128.286 -360.907 128.706L-361.299 129.191L-361.497 129.437ZM41.1365 131.391L40.9226 131.032C41.4486 130.681 41.9615 130.311 42.4607 129.922L42.7566 130.347L42.9021 130.556C42.3599 130.91 41.805 131.245 41.238 131.562L41.1365 131.391ZM-358.237 131.562C-358.804 131.245 -359.359 130.91 -359.902 130.556L-359.757 130.347L-359.46 129.922C-358.961 130.311 -358.447 130.681 -357.921 131.032L-358.136 131.391L-358.237 131.562ZM-354.734 133.218C-355.337 132.982 -355.929 132.725 -356.512 132.45L-356.446 132.316L-356.3 132.026C-355.745 132.338 -355.179 132.629 -354.601 132.898L-354.693 133.118L-354.734 133.218ZM37.6921 133.118L37.6013 132.898C38.1792 132.629 38.746 132.339 39.3005 132.027L39.4451 132.316L39.5124 132.45C38.93 132.725 38.3374 132.982 37.7341 133.218L37.6921 133.118ZM34.0368 134.334L34.0124 134.236C34.6298 134.06 35.2378 133.86 35.8357 133.636L35.8865 133.792L35.9099 133.861C35.2979 134.053 34.6766 134.224 34.0476 134.376L34.0368 134.334ZM-351.046 134.376C-351.676 134.224 -352.297 134.053 -352.909 133.861L-352.887 133.792L-352.834 133.636C-352.236 133.86 -351.628 134.061 -351.011 134.237L-351.036 134.334L-351.046 134.376ZM30.2449 135.014L30.2429 134.994C30.8845 134.917 31.5189 134.816 32.1452 134.69L32.154 134.742L32.1579 134.762C31.5273 134.869 30.8899 134.957 30.2458 135.022L30.2449 135.014ZM-347.244 135.022C-347.888 134.957 -348.526 134.869 -349.157 134.762L-349.154 134.742L-349.144 134.69C-348.517 134.816 -347.883 134.917 -347.241 134.994L-347.244 135.014V135.022ZM27.3572 135.167C27.6806 135.167 28.0025 135.159 28.323 135.146V135.149C28.0023 135.16 27.6804 135.167 27.3572 135.167ZM-345.093 135.157C-345.169 135.155 -345.245 135.152 -345.322 135.149V135.146C-345.219 135.15 -345.117 135.155 -345.015 135.158L-345.093 135.157Z" fill="#33F498" mask="url(#path-6-inside-3_828_2191)"/>
<mask id="path-8-inside-4_828_2191" fill="white">
<path d="M48.2755 110.25C48.2755 121.848 38.8735 131.25 27.2755 131.25L-345.796 131.25C-357.394 131.25 -366.796 121.848 -366.796 110.25V34.75C-366.796 23.152 -357.394 13.75 -345.796 13.75L27.2755 13.75C38.8735 13.75 48.2755 23.152 48.2755 34.75L48.2755 110.25Z"/>
</mask>
<path d="M28.3068 13.7812C27.9653 13.7611 27.6215 13.75 27.2755 13.75C27.6212 13.75 27.9649 13.7603 28.3068 13.7754V13.7812ZM-346.826 13.7754C-346.485 13.7603 -346.141 13.75 -345.796 13.75C-346.141 13.75 -346.485 13.7611 -346.826 13.7812V13.7754ZM32.3478 14.5088C31.6954 14.3095 31.0293 14.1475 30.3507 14.0254L30.3576 13.9746L30.3605 13.957C31.0483 14.0492 31.7265 14.1707 32.3937 14.3223L32.38 14.375L32.3478 14.5088ZM-350.9 14.375L-350.913 14.3223C-350.246 14.1708 -349.568 14.0492 -348.881 13.957L-348.879 13.9746L-348.871 14.0264C-349.549 14.1484 -350.215 14.3097 -350.867 14.5088L-350.9 14.375ZM36.0792 16.1377C35.492 15.7976 34.8872 15.4897 34.2658 15.2178L34.3527 14.9727L34.3888 14.873C35.0503 15.088 35.6985 15.3318 36.3322 15.6035L36.256 15.7617L36.0792 16.1377ZM-354.776 15.7617L-354.851 15.6035C-354.218 15.3318 -353.57 15.0879 -352.908 14.873L-352.873 14.9727L-352.785 15.2178C-353.406 15.4896 -354.011 15.7968 -354.598 16.1367L-354.776 15.7617ZM39.3204 18.5088C38.8238 18.0583 38.3055 17.636 37.7687 17.2422L38.0734 16.7344L38.2081 16.5107C38.8237 16.8439 39.422 17.2047 40.0021 17.5908L39.7853 17.8818L39.3204 18.5088ZM-358.307 17.8818L-358.522 17.5908C-357.942 17.2046 -357.343 16.8441 -356.727 16.5107L-356.594 16.7344L-356.288 17.2422C-356.825 17.636 -357.343 18.0583 -357.84 18.5088L-358.307 17.8818ZM41.9689 21.4355C41.5757 20.9061 41.1593 20.3984 40.7218 19.9141L41.3781 19.1895L41.6994 18.8359C42.2499 19.2797 42.7792 19.7484 43.2863 20.2402L42.8361 20.6475L41.9689 21.4355ZM-361.356 20.6475L-361.807 20.2393C-361.299 19.7474 -360.769 19.2797 -360.219 18.8359L-359.898 19.1895L-359.242 19.9131C-359.68 20.3975 -360.095 20.906 -360.488 21.4355L-361.356 20.6475ZM43.9826 24.7393C43.6973 24.1588 43.3867 23.5956 43.0548 23.0498L43.3419 22.8369L43.341 22.8359L44.1437 22.2402L44.7472 21.793C45.2127 22.3362 45.6536 22.901 46.0675 23.4863L45.13 24.0488L43.9826 24.7393ZM-362.953 24.4678H-362.954L-363.811 23.9521L-364.587 23.4863C-364.173 22.901 -363.732 22.3362 -363.266 21.793L-362.665 22.2402L-361.862 22.8359V22.8369L-361.574 23.0498C-361.906 23.5956 -362.216 24.1588 -362.502 24.7393L-362.953 24.4678ZM45.3556 28.2812C45.177 27.671 44.9747 27.0727 44.7482 26.4883L45.3615 26.1982L45.3605 26.1973L46.2638 25.7695L47.1671 25.3408L47.1681 25.3418L47.2335 25.3105C47.595 25.9398 47.9268 26.5881 48.2287 27.2529L47.0529 27.6729L45.3556 28.2812ZM-365.574 27.6729L-366.749 27.2529C-366.447 26.5879 -366.114 25.9399 -365.753 25.3105L-365.688 25.3418V25.3408L-364.784 25.7695L-363.881 26.1973V26.1982L-363.267 26.4883C-363.494 27.0727 -363.696 27.6709 -363.875 28.2812L-365.574 27.6729ZM46.1085 31.9541C46.0333 31.3287 45.9327 30.7122 45.8087 30.1055L47.6505 29.6455L49.0412 29.2988C49.2795 29.9952 49.4838 30.7069 49.6554 31.4316L49.0392 31.5225H49.0402L47.0617 31.8135L46.1085 31.9541ZM-365.582 31.8135L-367.56 31.5225H-367.559L-368.176 31.4316C-368.004 30.7069 -367.8 29.9952 -367.561 29.2988L-366.171 29.6455L-364.328 30.1064C-364.452 30.7129 -364.553 31.329 -364.628 31.9541L-365.582 31.8135ZM46.2755 34.75C46.2755 34.4368 46.2692 34.1253 46.257 33.8154L48.2511 33.7188L50.0646 33.6328C50.1586 34.327 50.2214 35.0308 50.2521 35.7432H46.2755V34.75ZM-368.773 35.7432C-368.743 35.0308 -368.679 34.327 -368.585 33.6328L-366.771 33.7187L-364.776 33.8154C-364.781 33.946 -364.787 34.0768 -364.79 34.208L-364.796 34.75V35.7432H-368.773ZM46.2755 39.7168V37.7305H50.2755V39.7168H46.2755ZM-368.796 39.7168V37.7305H-364.796V39.7168H-368.796ZM46.2755 43.6904V41.7041H50.2755V43.6904H46.2755ZM-368.796 43.6904V41.7041H-364.796V43.6904H-368.796ZM46.2755 47.6641V45.6777H50.2755V47.6641H46.2755ZM-368.796 47.6641V45.6777H-364.796V47.6641H-368.796ZM46.2755 51.6377V49.6514H50.2755V51.6377H46.2755ZM-368.796 51.6377V49.6514H-364.796V51.6377H-368.796ZM46.2755 55.6123V53.625H50.2755V55.6123H46.2755ZM-368.796 55.6123V53.625H-364.796V55.6123H-368.796ZM46.2755 59.5859V57.5986H50.2755V59.5859H46.2755ZM-368.796 59.5859V57.5986H-364.796V59.5859H-368.796ZM46.2755 63.5596V61.5723H50.2755L50.2755 63.5596H46.2755ZM-368.796 63.5596V61.5723H-364.796V63.5596H-368.796ZM46.2755 67.5332V65.5459H50.2755V67.5332H46.2755ZM-368.796 67.5332V65.5459H-364.796V67.5332H-368.796ZM46.2755 71.5068V69.5195H50.2755V71.5068H46.2755ZM-368.796 71.5068V69.5195H-364.796V71.5068H-368.796ZM46.2755 75.4805V73.4932H50.2755V75.4805H46.2755ZM-368.796 75.4805V73.4932H-364.796V75.4805H-368.796ZM46.2755 79.4541V77.4668H50.2755V79.4541H46.2755ZM-368.796 79.4541V77.4668H-364.796V79.4541H-368.796ZM46.2755 83.4277V81.4404H50.2755V83.4277H46.2755ZM-368.796 83.4277V81.4404H-364.796V83.4277H-368.796ZM46.2755 87.4014V85.4141H50.2755V87.4014H46.2755ZM-368.796 87.4014V85.4141H-364.796V87.4014H-368.796ZM46.2755 91.375V89.3877H50.2755V91.375H46.2755ZM-368.796 91.375V89.3877H-364.796V91.375H-368.796ZM46.2755 95.3486V93.3623H50.2755V95.3486H46.2755ZM-368.796 95.3486V93.3623H-364.796V95.3486H-368.796ZM46.2755 99.3223V97.3359H50.2755V99.3223H46.2755ZM-368.796 99.3223V97.3359H-364.796V99.3223H-368.796ZM46.2755 103.296V101.31H50.2755V103.296H46.2755ZM-368.796 103.296V101.31H-364.796V103.296H-368.796ZM46.2755 107.27V105.283H50.2755V107.27H46.2755ZM-368.796 107.27V105.283H-364.796V107.27H-368.796ZM46.2755 109.257H50.2521C50.2214 109.97 50.1587 110.674 50.0646 111.368L48.2511 111.281L46.257 111.186C46.2693 110.875 46.2755 110.564 46.2755 110.25V109.257ZM-368.585 111.368C-368.679 110.674 -368.743 109.97 -368.773 109.257H-364.796V110.25C-364.796 110.564 -364.789 110.875 -364.776 111.186L-366.771 111.281L-368.585 111.368ZM47.6505 115.354L45.8087 114.896C45.9327 114.289 46.0332 113.672 46.1085 113.047L48.0509 113.332L49.0402 113.478L49.0392 113.479L49.6554 113.569C49.4838 114.294 49.2795 115.006 49.0412 115.702L47.6505 115.354ZM-367.561 115.702C-367.8 115.006 -368.004 114.294 -368.176 113.569L-366.571 113.332L-364.628 113.047C-364.552 113.672 -364.452 114.289 -364.328 114.896L-366.171 115.354L-367.561 115.702ZM47.1681 119.659H47.1671L46.2638 119.23L45.3605 118.803H45.3615L44.7482 118.513C44.9747 117.928 45.177 117.33 45.3556 116.72L47.0529 117.327L47.9953 117.664V117.665L48.2287 117.748C47.9268 118.413 47.595 119.061 47.2335 119.69L47.1681 119.659ZM-365.753 119.69C-366.114 119.061 -366.447 118.413 -366.749 117.748L-365.574 117.327L-363.875 116.72C-363.696 117.33 -363.494 117.928 -363.267 118.513L-364.784 119.23L-365.753 119.69ZM44.1437 122.76L43.341 122.164H43.3419L43.0548 121.951C43.3867 121.405 43.6972 120.842 43.9826 120.262L44.4337 120.533V120.532L45.2912 121.048L45.3937 121.109L46.0675 121.515C45.6536 122.1 45.2127 122.665 44.7472 123.208L44.1437 122.76ZM-363.266 123.208C-363.732 122.665 -364.173 122.1 -364.587 121.515L-363.811 121.048L-362.954 120.532L-362.953 120.533L-362.502 120.262C-362.216 120.842 -361.906 121.405 -361.574 121.951L-362.665 122.76L-363.266 123.208ZM41.3781 125.811L40.7218 125.087C41.1593 124.603 41.5757 124.095 41.9689 123.565L42.8361 124.353L43.2863 124.761C42.7792 125.253 42.2498 125.721 41.6994 126.165L41.3781 125.811ZM-360.219 126.165C-360.769 125.721 -361.299 125.253 -361.807 124.762L-361.356 124.353L-360.488 123.565C-360.095 124.095 -359.68 124.604 -359.242 125.088L-359.898 125.811L-360.219 126.165ZM38.0734 128.266L37.7687 127.759C38.3055 127.365 38.8238 126.943 39.3204 126.492L39.7853 127.118L40.0021 127.41C39.422 127.796 38.8237 128.157 38.2081 128.49L38.0734 128.266ZM-356.727 128.49C-357.343 128.157 -357.942 127.796 -358.522 127.41L-358.307 127.118L-357.84 126.492C-357.343 126.943 -356.825 127.365 -356.288 127.759L-356.594 128.266L-356.727 128.49ZM34.3527 130.027L34.2658 129.783C34.8872 129.511 35.492 129.203 36.0792 128.863L36.256 129.238L36.3322 129.397C35.6985 129.669 35.0502 129.913 34.3888 130.128L34.3527 130.027ZM-352.908 130.128C-353.57 129.913 -354.218 129.669 -354.851 129.397L-354.776 129.238L-354.598 128.864C-354.011 129.204 -353.406 129.511 -352.785 129.783L-352.873 130.027L-352.908 130.128ZM30.3576 131.025L30.3507 130.976C31.0292 130.854 31.6954 130.691 32.3478 130.492L32.38 130.625L32.3937 130.679C31.7266 130.83 31.0483 130.952 30.3605 131.044L30.3576 131.025ZM-348.881 131.044C-349.568 130.952 -350.246 130.83 -350.913 130.679L-350.9 130.625L-350.867 130.492C-350.215 130.691 -349.549 130.853 -348.871 130.975L-348.879 131.025L-348.881 131.044ZM27.2755 131.25C27.6215 131.25 27.9653 131.24 28.3068 131.22V131.226C27.9649 131.241 27.6211 131.25 27.2755 131.25ZM-346.39 131.242C-346.535 131.238 -346.681 131.232 -346.826 131.226V131.22C-346.647 131.23 -346.467 131.238 -346.286 131.243L-346.39 131.242Z" fill="#33F498" mask="url(#path-8-inside-4_828_2191)"/>
</g>
</svg>
